<?xml version="1.0" encoding="UTF-8" standalone="no"?>
<!-- Created with Inkscape (http://www.inkscape.org/) -->

<svg
   xmlns:osb="http://www.openswatchbook.org/uri/2009/osb"
   xmlns:dc="http://purl.org/dc/elements/1.1/"
   xmlns:cc="http://creativecommons.org/ns#"
   xmlns:rdf="http://www.w3.org/1999/02/22-rdf-syntax-ns#"
   xmlns:svg="http://www.w3.org/2000/svg"
   xmlns="http://www.w3.org/2000/svg"
   xmlns:sodipodi="http://sodipodi.sourceforge.net/DTD/sodipodi-0.dtd"
   xmlns:inkscape="http://www.inkscape.org/namespaces/inkscape"
   id="svg3406"
   version="1.1"
   inkscape:version="0.91 r13725"
   width="955"
   height="193.75"
   viewBox="0 0 955 193.75"
   sodipodi:docname="plan-convention-path.svg"
   inkscape:export-filename="/home/julien/Images/plan-convention-path.png"
   inkscape:export-xdpi="184.976"
   inkscape:export-ydpi="184.976">
  <metadata
     id="metadata3412">
    <rdf:RDF>
      <cc:Work
         rdf:about="">
        <dc:format>image/svg+xml</dc:format>
        <dc:type
           rdf:resource="http://purl.org/dc/dcmitype/StillImage" />
        <dc:title />
      </cc:Work>
    </rdf:RDF>
  </metadata>
  <defs
     id="defs3410">
    <linearGradient
       id="linearGradient5901"
       osb:paint="solid">
      <stop
         style="stop-color:#000000;stop-opacity:1;"
         offset="0"
         id="stop5903" />
    </linearGradient>
  </defs>
  <sodipodi:namedview
     pagecolor="#ffffff"
     bordercolor="#666666"
     borderopacity="1"
     objecttolerance="10"
     gridtolerance="10"
     guidetolerance="10"
     inkscape:pageopacity="0"
     inkscape:pageshadow="2"
     inkscape:window-width="1855"
     inkscape:window-height="1056"
     id="namedview3408"
     showgrid="false"
     showguides="false"
     inkscape:guide-bbox="true"
     inkscape:zoom="1"
     inkscape:cx="410.88993"
     inkscape:cy="118.47172"
     inkscape:window-x="65"
     inkscape:window-y="24"
     inkscape:window-maximized="1"
     inkscape:current-layer="svg3406">
    <sodipodi:guide
       position="18.643191,13.174521"
       orientation="1,0"
       id="guide4246" />
    <sodipodi:guide
       position="28.089074,43.749354"
       orientation="1,0"
       id="guide4248" />
    <sodipodi:guide
       position="59.161058,35.54635"
       orientation="1,0"
       id="guide4250" />
    <sodipodi:guide
       position="98.933198,36.043502"
       orientation="1,0"
       id="guide4252" />
    <sodipodi:guide
       position="252.30451,-0.49715175"
       orientation="1,0"
       id="guide4254" />
    <sodipodi:guide
       position="300.52823,-14.417401"
       orientation="1,0"
       id="guide4256" />
    <sodipodi:guide
       position="400.70431,48.720871"
       orientation="1,0"
       id="guide4258" />
    <sodipodi:guide
       position="468.8141,16.903159"
       orientation="1,0"
       id="guide4260" />
    <sodipodi:guide
       position="497.89748,37.534957"
       orientation="1,0"
       id="guide4262" />
    <sodipodi:guide
       position="554.07562,36.043502"
       orientation="1,0"
       id="guide4264" />
    <sodipodi:guide
       position="599.31643,27.09477"
       orientation="1,0"
       id="guide4266" />
    <sodipodi:guide
       position="667.17765,3.2314864"
       orientation="1,0"
       id="guide4268" />
    <sodipodi:guide
       position="739.26465,1.7400311"
       orientation="1,0"
       id="guide4270" />
    <sodipodi:guide
       position="928.92804,-12.925945"
       orientation="1,0"
       id="guide4272" />
    <sodipodi:guide
       position="1175.2667,-18.146039"
       orientation="1,0"
       id="guide4274" />
    <sodipodi:guide
       position="1164.8265,-17.151735"
       orientation="1,0"
       id="guide4276" />
    <sodipodi:guide
       position="1063.159,179.96893"
       orientation="0,1"
       id="guide4278" />
    <sodipodi:guide
       position="1068.8763,167.29156"
       orientation="0,1"
       id="guide4280" />
    <sodipodi:guide
       position="728.82446,142.93113"
       orientation="0,1"
       id="guide4282" />
    <sodipodi:guide
       position="723.10722,130.99949"
       orientation="0,1"
       id="guide4284" />
    <sodipodi:guide
       position="721.36719,15.163128"
       orientation="0,1"
       id="guide4286" />
    <sodipodi:guide
       position="535.43243,97.441743"
       orientation="0,1"
       id="guide4288" />
    <sodipodi:guide
       position="433.01917,110.86484"
       orientation="0,1"
       id="guide4290" />
    <sodipodi:guide
       position="283.3765,84.267221"
       orientation="0,1"
       id="guide4292" />
    <sodipodi:guide
       position="231.17556,161.32574"
       orientation="0,1"
       id="guide4294" />
    <sodipodi:guide
       position="232.16987,49.218023"
       orientation="0,1"
       id="guide4296" />
    <sodipodi:guide
       position="368.38945,110.86484"
       orientation="1,0"
       id="guide4400" />
    <sodipodi:guide
       position="432.02487,97.441743"
       orientation="1,0"
       id="guide4402" />
  </sodipodi:namedview>
  <path
     style="fill:#000000;fill-opacity:1;fill-rule:evenodd;stroke:#000000;stroke-width:4.46928787;stroke-linecap:butt;stroke-linejoin:miter;stroke-miterlimit:4;stroke-dasharray:none;stroke-opacity:1"
     d="m 25.900693,178.85223 -7.522858,0 0,-165.336516 921.154225,0 0,165.336516 -8.31475,0 0,-152.618322 -726.74771,0 0,5.985031 -178.568907,0 z"
     id="path4300"
     inkscape:connector-curvature="0"
     inkscape:export-xdpi="184.74001"
     inkscape:export-ydpi="184.74001" />
  <path
     style="fill:none;fill-rule:evenodd;stroke:#000000;stroke-width:4.48217535;stroke-linecap:butt;stroke-linejoin:miter;stroke-miterlimit:4;stroke-dasharray:none;stroke-opacity:1"
     d="m 941.56654,178.58687 -913.477466,0"
     id="path4302"
     inkscape:connector-curvature="0"
     inkscape:export-xdpi="184.74001"
     inkscape:export-ydpi="184.74001" />
  <rect
     style="opacity:1;fill:#9cd3e7;fill-opacity:0;stroke:#000000;stroke-width:5.03263712;stroke-linejoin:round;stroke-miterlimit:4;stroke-dasharray:none;stroke-opacity:1"
     id="rect4306"
     width="153.33867"
     height="113.60021"
     x="98.949516"
     y="30.915451"
     inkscape:export-xdpi="184.74001"
     inkscape:export-ydpi="184.74001" />
  <path
     style="fill:none;fill-rule:evenodd;stroke:#000000;stroke-width:5;stroke-linecap:butt;stroke-linejoin:miter;stroke-miterlimit:4;stroke-dasharray:none;stroke-opacity:1"
     d="m 59.161058,32.42426 0,146.16261"
     id="path4396"
     inkscape:connector-curvature="0"
     inkscape:export-xdpi="184.74001"
     inkscape:export-ydpi="184.74001" />
  <path
     style="opacity:1;fill:#b4b4b4;fill-opacity:0;fill-rule:evenodd;stroke:#000000;stroke-width:5;stroke-linecap:butt;stroke-linejoin:round;stroke-miterlimit:4;stroke-dasharray:none;stroke-opacity:1"
     d="m 667.17765,26.45844 0,36.29207 72.087,0 0,115.83636 189.66339,0 0,-152.12843 z"
     id="path4426"
     inkscape:connector-curvature="0"
     inkscape:export-xdpi="184.74001"
     inkscape:export-ydpi="184.74001" />
  <rect
     style="opacity:1;fill:#b98d7c;fill-opacity:0;stroke:#000000;stroke-width:4.86163855;stroke-linejoin:round;stroke-miterlimit:4;stroke-dasharray:none;stroke-opacity:1"
     id="rect4436"
     width="100.31444"
     height="65.242363"
     x="300.45905"
     y="113.4137"
     inkscape:export-xdpi="184.74001"
     inkscape:export-ydpi="184.74001" />
  <rect
     style="opacity:1;fill:#f08361;fill-opacity:0;stroke:#000000;stroke-width:4.86310959;stroke-linejoin:round;stroke-miterlimit:4;stroke-dasharray:none;stroke-opacity:1"
     id="rect4438"
     width="68.246681"
     height="65.240891"
     x="400.63586"
     y="113.41443"
     inkscape:export-xdpi="184.74001"
     inkscape:export-ydpi="184.74001" />
  <rect
     style="opacity:1;fill:#66a7b8;fill-opacity:0;stroke:#000000;stroke-width:5.06813049;stroke-linejoin:round;stroke-miterlimit:4;stroke-dasharray:none;stroke-opacity:1"
     id="rect4440"
     width="61.330101"
     height="65.035866"
     x="492.71149"
     y="113.51694"
     inkscape:export-xdpi="184.74001"
     inkscape:export-ydpi="184.74001" />
  <rect
     style="opacity:1;fill:#0fe767;fill-opacity:1;stroke:#000000;stroke-width:5.55784035;stroke-linejoin:round;stroke-miterlimit:4;stroke-dasharray:none;stroke-opacity:1"
     id="rect4442"
     width="59.8461"
     height="64.546158"
     x="554.35455"
     y="113.7618"
     inkscape:export-xdpi="184.74001"
     inkscape:export-ydpi="184.74001" />
  <path
     style="fill:none;fill-rule:evenodd;stroke:#000000;stroke-width:5;stroke-linecap:butt;stroke-linejoin:round;stroke-miterlimit:4;stroke-dasharray:none;stroke-opacity:1"
     d="m 252.30451,44.818613 48.22372,0 0,45.489387 67.86122,0 0,-13.423097 63.63542,0 0,13.423097 235.15278,0 0,-33.557747 0,-36.29207 -414.87314,0 z"
     id="path4446"
     inkscape:connector-curvature="0"
     inkscape:export-xdpi="184.74001"
     inkscape:export-ydpi="184.74001" />
  <path
     style="fill:none;fill-rule:evenodd;stroke:#000000;stroke-width:5;stroke-linecap:butt;stroke-linejoin:miter;stroke-miterlimit:4;stroke-dasharray:none;stroke-opacity:1"
     d="m 468.8141,113.48278 29.08338,0"
     id="path4448"
     inkscape:connector-curvature="0"
     inkscape:export-xdpi="184.74001"
     inkscape:export-ydpi="184.74001" />
  <path
     style="fill:none;fill-rule:evenodd;stroke:#000000;stroke-width:4.28845406;stroke-linecap:butt;stroke-linejoin:round;stroke-miterlimit:4;stroke-dasharray:none;stroke-opacity:1"
     d="m 615.11809,113.12709 52.41533,0 0,65.81555 -52.41533,0 z"
     id="path4452"
     inkscape:connector-curvature="0"
     inkscape:export-xdpi="184.74001"
     inkscape:export-ydpi="184.74001" />
  <g
     style="font-style:normal;font-variant:normal;font-weight:normal;font-stretch:normal;font-size:40px;line-height:125%;font-family:FontAwesome;-inkscape-font-specification:FontAwesome;letter-spacing:0px;word-spacing:0px;fill:#000000;fill-opacity:1;stroke:none;stroke-width:1px;stroke-linecap:butt;stroke-linejoin:miter;stroke-opacity:1"
     id="text5936"
     inkscape:export-xdpi="184.74001"
     inkscape:export-ydpi="184.74001"
     transform="matrix(1.5974441,0,0,1.5974441,-62.042621,-84.886087)">
    <path
       d="m 145.90108,110.78206 q 2.65,0 4.8,0.6 2.15,0.6 3.7,1.85 1.55,1.25 2.35,3.2 0.85,1.9 0.85,4.5 0,2.7 -1.1,4.9 -1.1,2.2 -3.65,3.35 0.85,1.3 1.8,2.9 0.95,1.55 1.85,3.3 0.9,1.7 1.7,3.45 0.85,1.7 1.45,3.25 l -6.45,0 q -1.15,-3 -2.7,-5.75 -1.5,-2.8 -3.25,-5.65 l -3.2,0 0,11.4 -6.15,0 0,-30.5 q 0.9,-0.2 1.95,-0.35 1.1,-0.2 2.2,-0.25 1.1,-0.1 2.1,-0.15 1,-0.05 1.75,-0.05 z m 5.45,10.1 q 0,-2.45 -1.5,-3.6 -1.5,-1.15 -3.95,-1.15 -0.35,0 -0.85,0.05 -0.5,0 -1,0.1 l 0,9.3 1.35,0 q 3.15,0 4.55,-1.2 1.4,-1.25 1.4,-3.5 z"
       style="font-style:normal;font-variant:normal;font-weight:bold;font-stretch:normal;font-size:50px;font-family:'Ubuntu Mono';-inkscape-font-specification:'Ubuntu Mono Bold'"
       id="path4238"
       inkscape:connector-curvature="0" />
  </g>
  <g
     style="font-style:normal;font-weight:normal;font-size:40px;line-height:125%;font-family:sans-serif;letter-spacing:0px;word-spacing:0px;fill:#000000;fill-opacity:1;stroke:none;stroke-width:1px;stroke-linecap:butt;stroke-linejoin:miter;stroke-opacity:1"
     id="text5940"
     inkscape:export-xdpi="184.74001"
     inkscape:export-ydpi="184.74001"
     transform="matrix(1.8575851,0,0,1.8575851,-255.43657,-151.43724)">
    <path
       d="m 325.80845,174.01196 q 0.775,0 1.275,-0.15 0.525,-0.175 0.825,-0.45 0.3,-0.3 0.4,-0.65 0.125,-0.375 0.125,-0.75 0,-0.475 -0.275,-0.85 -0.275,-0.375 -0.7,-0.65 -0.425,-0.3 -0.95,-0.525 -0.525,-0.25 -1.05,-0.45 -0.7,-0.25 -1.45,-0.575 -0.75,-0.325 -1.375,-0.825 -0.6,-0.5 -1,-1.225 -0.4,-0.75 -0.4,-1.85 0,-2.175 1.4,-3.4 1.425,-1.225 3.9,-1.225 1.425,0 2.475,0.325 1.075,0.325 1.8,0.725 l -0.9,2.375 q -0.625,-0.35 -1.4,-0.6 -0.75,-0.25 -1.75,-0.25 -2.45,0 -2.45,1.775 0,0.45 0.25,0.8 0.25,0.325 0.625,0.6 0.4,0.25 0.875,0.45 0.5,0.2 0.975,0.375 0.725,0.275 1.5,0.625 0.8,0.325 1.45,0.9 0.675,0.55 1.1,1.4 0.425,0.825 0.425,2.1 0,2.175 -1.425,3.375 -1.4,1.175 -4.275,1.175 -1.925,0 -3.075,-0.4 -1.15,-0.425 -1.725,-0.775 l 0.9,-2.5 q 0.675,0.4 1.6,0.75 0.95,0.35 2.3,0.35 z"
       style="font-size:25px"
       id="path4259"
       inkscape:connector-curvature="0" />
  </g>
  <g
     transform="matrix(1.9385835,0,0,1.9386107,-379.62939,-165.43884)"
     style="font-style:normal;font-weight:normal;font-size:40px;line-height:125%;font-family:sans-serif;letter-spacing:0px;word-spacing:0px;fill:#000000;fill-opacity:1;stroke:none;stroke-width:1px;stroke-linecap:butt;stroke-linejoin:miter;stroke-opacity:1"
     id="text5944"
     inkscape:export-xdpi="184.74001"
     inkscape:export-ydpi="184.74001">
    <path
       d="m 422.71967,176.26125 q -1.05,-2.575 -2.3,-5.125 -1.225,-2.575 -2.65,-5.15 l 0,10.275 -2.775,0 0,-15.475 2.475,0 q 0.7,1.1 1.4,2.4 0.7,1.275 1.35,2.55 0.675,1.275 1.225,2.475 0.575,1.2 0.975,2.1 l 0,-9.525 2.775,0 0,15.475 -2.475,0 z"
       style="font-style:normal;font-variant:normal;font-weight:bold;font-stretch:normal;font-size:25px;font-family:'Ubuntu Mono';-inkscape-font-specification:'Ubuntu Mono Bold'"
       id="path4276"
       inkscape:connector-curvature="0" />
  </g>
  <g
     style="font-style:normal;font-weight:normal;font-size:40px;line-height:125%;font-family:sans-serif;letter-spacing:0px;word-spacing:0px;fill:#000000;fill-opacity:1;stroke:none;stroke-width:1px;stroke-linecap:butt;stroke-linejoin:miter;stroke-opacity:1"
     id="text5948"
     inkscape:export-xdpi="184.74001"
     inkscape:export-ydpi="184.74001"
     transform="matrix(1.8927445,0,0,1.8927445,-433.17137,-157.37913)">
    <path
       d="m 503.21364,173.58687 q 0.125,0.025 0.275,0.025 0.15,0 0.275,0 1.05,0 1.75,-0.4 0.725,-0.4 1.15,-1.1 0.45,-0.7 0.625,-1.65 0.2,-0.975 0.2,-2.125 0,-1 -0.15,-1.95 -0.15,-0.95 -0.525,-1.675 -0.375,-0.725 -1.025,-1.15 -0.65,-0.45 -1.675,-0.45 -0.2,0 -0.45,0.025 -0.25,0 -0.45,0.05 l 0,10.4 z m 7.4,-5.25 q 0,2.15 -0.55,3.675 -0.525,1.5 -1.475,2.45 -0.95,0.95 -2.275,1.4 -1.3,0.425 -2.875,0.425 -0.825,0 -1.625,-0.1 -0.775,-0.075 -1.675,-0.275 l 0,-15.1 q 1.05,-0.225 1.975,-0.3 0.925,-0.075 1.725,-0.075 1.525,0 2.775,0.45 1.275,0.45 2.15,1.425 0.875,0.95 1.35,2.45 0.5,1.475 0.5,3.575 z"
       style="font-size:25px;fill:#000000;fill-opacity:1"
       id="path4289"
       inkscape:connector-curvature="0" />
  </g>
  <g
     style="font-style:normal;font-weight:normal;font-size:40px;line-height:125%;font-family:sans-serif;letter-spacing:0px;word-spacing:0px;fill:#000000;fill-opacity:1;stroke:none;stroke-width:1px;stroke-linecap:butt;stroke-linejoin:miter;stroke-opacity:1"
     id="text5952"
     inkscape:export-xdpi="184.74001"
     inkscape:export-ydpi="184.74001"
     transform="matrix(1.8927445,0,0,1.8927445,-521.61061,-156.93279)">
    <path
       d="m 589.4651,170.91191 q 0,1.4 -0.475,2.35 -0.475,0.925 -1.3,1.5 -0.8,0.55 -1.925,0.8 -1.1,0.225 -2.375,0.225 -1.025,0 -2.125,-0.125 -1.1,-0.1 -2.175,-0.325 l 0,-15.025 q 0.875,-0.15 1.925,-0.25 1.05,-0.125 2.075,-0.125 1.75,0 2.85,0.375 1.1,0.35 1.725,0.95 0.625,0.575 0.85,1.3 0.225,0.725 0.225,1.45 0,1.1 -0.55,1.95 -0.525,0.85 -1.425,1.35 1.575,0.575 2.125,1.55 0.575,0.975 0.575,2.05 z m -7.3,-2.1 0,4.2 q 0.325,0.05 0.7,0.075 0.4,0.025 0.775,0.025 0.525,0 1.025,-0.075 0.5,-0.1 0.875,-0.325 0.4,-0.25 0.65,-0.675 0.25,-0.45 0.25,-1.125 0,-1.125 -0.725,-1.6 -0.7,-0.5 -1.9,-0.5 l -1.65,0 z m 1.2,-2.55 q 1.175,0 1.775,-0.5 0.6,-0.525 0.6,-1.425 0,-0.55 -0.175,-0.875 -0.175,-0.35 -0.475,-0.525 -0.3,-0.2 -0.7,-0.25 -0.4,-0.075 -0.825,-0.075 -0.35,0 -0.725,0.025 -0.375,0.025 -0.675,0.075 l 0,3.55 1.2,0 z"
       style="font-style:normal;font-variant:normal;font-weight:bold;font-stretch:normal;font-size:25px;font-family:'Ubuntu Mono';-inkscape-font-specification:'Ubuntu Mono Bold'"
       id="path4304"
       inkscape:connector-curvature="0" />
  </g>
  <text
     xml:space="preserve"
     style="font-style:normal;font-weight:normal;font-size:40px;line-height:125%;font-family:sans-serif;letter-spacing:0px;word-spacing:0px;fill:#000000;fill-opacity:1;stroke:none;stroke-width:1px;stroke-linecap:butt;stroke-linejoin:miter;stroke-opacity:1"
     x="810.35736"
     y="109.2342"
     id="text5956"
     sodipodi:linespacing="125%"><tspan
       sodipodi:role="line"
       id="tspan5958"
       x="810.35736"
       y="109.2342" /></text>
  <text
     xml:space="preserve"
     style="font-style:normal;font-weight:normal;font-size:40px;line-height:125%;font-family:sans-serif;letter-spacing:0px;word-spacing:0px;fill:#000000;fill-opacity:1;stroke:none;stroke-width:1px;stroke-linecap:butt;stroke-linejoin:miter;stroke-opacity:1"
     x="685.07513"
     y="120.17154"
     id="text5960"
     sodipodi:linespacing="125%"><tspan
       sodipodi:role="line"
       id="tspan5962"
       x="685.07513"
       y="120.17154" /></text>
  <g
     style="font-style:normal;font-weight:normal;font-size:40px;line-height:125%;font-family:sans-serif;letter-spacing:0px;word-spacing:0px;fill:#000000;fill-opacity:1;stroke:none;stroke-width:1px;stroke-linecap:butt;stroke-linejoin:miter;stroke-opacity:1"
     id="text4190"
     inkscape:export-xdpi="184.74001"
     inkscape:export-ydpi="184.74001">
    <path
       d="m 332,68.657944 c 0,-2.070313 -1.67969,-3.75 -3.75,-3.75 l -12.5,0 c -2.07031,0 -3.75,1.679687 -3.75,3.75 l 0,8.125 c 0,1.035156 0.83984,1.875 1.875,1.875 1.03516,0 1.875,-0.839844 1.875,-1.875 l 0,-6.875 1.25,0 0,17.8125 c 0,1.210937 0.97656,2.1875 2.1875,2.1875 1.21094,0 2.1875,-0.976563 2.1875,-2.1875 l 0,-9.0625 1.25,0 0,9.0625 c 0,1.210937 0.97656,2.1875 2.1875,2.1875 1.21094,0 2.1875,-0.976563 2.1875,-2.1875 l 0,-17.8125 1.25,0 0,6.875 c 0,1.035156 0.83984,1.875 1.875,1.875 1.03516,0 1.875,-0.839844 1.875,-1.875 l 0,-8.125 z m -5.625,-8.75 c 0,-2.421875 -1.95313,-4.375 -4.375,-4.375 -2.42188,0 -4.375,1.953125 -4.375,4.375 0,2.421875 1.95312,4.375 4.375,4.375 2.42187,0 4.375,-1.953125 4.375,-4.375 z"
       style="font-style:normal;font-variant:normal;font-weight:normal;font-stretch:normal;font-size:35px;font-family:FontAwesome;-inkscape-font-specification:FontAwesome"
       id="path4327"
       inkscape:connector-curvature="0" />
    <path
       d="m 357.0293,75.532944 c 0,-0.371094 -0.11719,-0.742188 -0.3125,-1.035157 l -5,-7.5 c -0.78125,-1.152343 -1.99219,-2.089843 -3.4375,-2.089843 l -7.5,0 c -1.44532,0 -2.65625,0.9375 -3.4375,2.089843 l -5,7.5 c -0.19532,0.292969 -0.3125,0.664063 -0.3125,1.035157 0,1.035156 0.83984,1.875 1.875,1.875 0.625,0 1.21093,-0.3125 1.5625,-0.839844 l 4.43359,-6.660156 0.87891,0 0,2.578125 -4.82422,8.027343 c -0.11719,0.195313 -0.17578,0.410157 -0.17578,0.644532 0,0.683593 0.5664,1.25 1.25,1.25 l 3.75,0 0,5.3125 c 0,1.210937 0.99609,2.1875 2.1875,2.1875 l 3.125,0 c 1.21093,0 2.1875,-0.976563 2.1875,-2.1875 l 0,-5.3125 3.75,0 c 0.68359,0 1.25,-0.566407 1.25,-1.25 0,-0.234375 -0.0586,-0.449219 -0.17578,-0.644532 l -4.82422,-8.027343 0,-2.578125 0.8789,0 4.4336,6.660156 c 0.35156,0.527344 0.9375,0.839844 1.5625,0.839844 1.03515,0 1.875,-0.839844 1.875,-1.875 z m -8.125,-15.625 c 0,-2.421875 -1.95313,-4.375 -4.375,-4.375 -2.42188,0 -4.375,1.953125 -4.375,4.375 0,2.421875 1.95312,4.375 4.375,4.375 2.42187,0 4.375,-1.953125 4.375,-4.375 z"
       style="font-style:normal;font-variant:normal;font-weight:normal;font-stretch:normal;font-size:35px;font-family:FontAwesome;-inkscape-font-specification:FontAwesome"
       id="path4329"
       inkscape:connector-curvature="0" />
  </g>
  <g
     style="font-style:normal;font-weight:normal;font-size:40px;line-height:125%;font-family:sans-serif;letter-spacing:0px;word-spacing:0px;fill:#000000;fill-opacity:1;stroke:none;stroke-width:1px;stroke-linecap:butt;stroke-linejoin:miter;stroke-opacity:1"
     id="text4194"
     inkscape:export-xdpi="184.74001"
     inkscape:export-ydpi="184.74001">
    <path
       d="m 721.04631,163.25231 c 0,-0.75892 -0.3125,-1.49553 -0.82589,-2.03125 l -14.53125,-14.53125 c -0.53572,-0.53571 -1.27233,-0.82589 -2.03125,-0.82589 -0.75893,0 -1.49554,0.29018 -2.00893,0.82589 l -14.53125,14.53125 c -0.53572,0.53572 -0.84822,1.27233 -0.84822,2.03125 0,0.75893 0.3125,1.47322 0.84822,2.00893 l 1.6741,1.67411 c 0.5134,0.53571 1.25,0.84821 2.00893,0.84821 0.75893,0 1.49554,-0.3125 2.00893,-0.84821 l 6.5625,-6.54018 0,15.71429 c 0,1.60714 1.33929,2.6116 2.85714,2.6116 l 2.85715,0 c 1.51785,0 2.85714,-1.00446 2.85714,-2.6116 l 0,-15.71429 6.5625,6.54018 c 0.51339,0.53571 1.25,0.84821 2.00893,0.84821 0.75893,0 1.49553,-0.3125 2.03125,-0.84821 l 1.67411,-1.67411 c 0.51339,-0.53571 0.82589,-1.25 0.82589,-2.00893 z"
       id="path4321"
       inkscape:connector-curvature="0" />
  </g>
  <g
     style="font-style:normal;font-weight:normal;font-size:40px;line-height:125%;font-family:sans-serif;letter-spacing:0px;word-spacing:0px;fill:#000000;fill-opacity:1;stroke:none;stroke-width:1px;stroke-linecap:butt;stroke-linejoin:miter;stroke-opacity:1"
     id="text4198"
     inkscape:export-xdpi="184.74001"
     inkscape:export-ydpi="184.74001">
    <path
       d="m 828.80244,139.69126 c 0,-0.78125 -0.64732,-1.42857 -1.42857,-1.42857 -0.78125,0 -1.42857,0.64732 -1.42857,1.42857 l 0,9.28571 c 0,0.78125 -0.64733,1.42857 -1.42858,1.42857 -0.78125,0 -1.42857,-0.64732 -1.42857,-1.42857 l 0,-9.28571 c 0,-0.78125 -0.64732,-1.42857 -1.42857,-1.42857 -0.78125,0 -1.42857,0.64732 -1.42857,1.42857 l 0,9.28571 c 0,0.78125 -0.64732,1.42857 -1.42857,1.42857 -0.78125,0 -1.42857,-0.64732 -1.42857,-1.42857 l 0,-9.28571 c 0,-0.78125 -0.64732,-1.42857 -1.42857,-1.42857 -0.78125,0 -1.42858,0.64732 -1.42858,1.42857 l 0,14.28571 c 0,1.80804 1.16072,3.4375 2.85715,4.04018 l 0,17.38839 c 0,1.5625 1.29464,2.85715 2.85714,2.85715 l 2.85714,0 c 1.5625,0 2.85715,-1.29465 2.85715,-2.85715 l 0,-17.38839 c 1.69642,-0.60268 2.85714,-2.23214 2.85714,-4.04018 l 0,-14.28571 z m 17.14286,0 c 0,-0.78125 -0.64733,-1.42857 -1.42858,-1.42857 l -5.71428,0 c -3.92857,0 -7.14286,3.21428 -7.14286,7.14285 l 0,17.85715 c 0,0.37946 0.33482,0.71428 0.71429,0.71428 l 5,0 0,11.42857 c 0,1.5625 1.29464,2.85715 2.85714,2.85715 l 2.85714,0 c 1.5625,0 2.85715,-1.29465 2.85715,-2.85715 l 0,-35.71428 z"
       id="path4324"
       inkscape:connector-curvature="0" />
  </g>
  <flowRoot
     xml:space="preserve"
     id="flowRoot4202"
     style="font-style:normal;font-weight:normal;font-size:40px;line-height:125%;font-family:sans-serif;letter-spacing:0px;word-spacing:0px;fill:#000000;fill-opacity:1;stroke:none;stroke-width:1px;stroke-linecap:butt;stroke-linejoin:miter;stroke-opacity:1"><flowRegion
       id="flowRegion4204"><rect
         id="rect4206"
         width="239.62715"
         height="142.18541"
         x="555.81567"
         y="386.6449" /></flowRegion><flowPara
       id="flowPara4208" /></flowRoot></svg>
