<?xml version="1.0" encoding="UTF-8" standalone="no"?>
<!-- Created with Inkscape (http://www.inkscape.org/) -->

<svg
   xmlns:dc="http://purl.org/dc/elements/1.1/"
   xmlns:cc="http://creativecommons.org/ns#"
   xmlns:rdf="http://www.w3.org/1999/02/22-rdf-syntax-ns#"
   xmlns:svg="http://www.w3.org/2000/svg"
   xmlns="http://www.w3.org/2000/svg"
   xmlns:sodipodi="http://sodipodi.sourceforge.net/DTD/sodipodi-0.dtd"
   xmlns:inkscape="http://www.inkscape.org/namespaces/inkscape"
   width="223.57352mm"
   height="120.17137mm"
   viewBox="0 0 792.18963 425.80407"
   id="svg2"
   version="1.1"
   inkscape:version="0.92.1 r15371"
   sodipodi:docname="Logo_Wikiconvention_Francophone.svg">
  <defs
     id="defs4" />
  <sodipodi:namedview
     id="base"
     pagecolor="#ffffff"
     bordercolor="#666666"
     borderopacity="1.0"
     inkscape:pageopacity="0.0"
     inkscape:pageshadow="2"
     inkscape:zoom="0.49497475"
     inkscape:cx="585.54123"
     inkscape:cy="370.25542"
     inkscape:document-units="px"
     inkscape:current-layer="layer1"
     showgrid="false"
     fit-margin-top="0"
     fit-margin-left="0"
     fit-margin-right="0"
     fit-margin-bottom="0"
     inkscape:window-width="1307"
     inkscape:window-height="744"
     inkscape:window-x="59"
     inkscape:window-y="24"
     inkscape:window-maximized="1" />
  <metadata
     id="metadata7">
    <rdf:RDF>
      <cc:Work
         rdf:about="">
        <dc:format>image/svg+xml</dc:format>
        <dc:type
           rdf:resource="http://purl.org/dc/dcmitype/StillImage" />
        <dc:title />
      </cc:Work>
    </rdf:RDF>
  </metadata>
  <g
     inkscape:label="Calque 1"
     inkscape:groupmode="layer"
     id="layer1"
     transform="translate(717.70395,-400.05952)">
    <path
       inkscape:connector-curvature="0"
       id="path3509"
       d="m -489.21429,825.72848 c -1.155,-0.1131 -5.205,-0.50084 -9,-0.86163 -15.08398,-1.43405 -34.08425,-5.51781 -36.24302,-7.78978 -0.69134,-0.72758 -0.87695,-1.1085 -0.41246,-0.84649 1.70248,0.96039 14.87248,1.78229 22.131,1.38114 17.51458,-0.96797 32.17454,-5.9184 52.92595,-17.87221 21.98636,-12.66521 51.52647,-32.63287 77.69853,-52.52039 5.28,-4.01215 11.31226,-8.4478 13.40502,-9.85701 8.47809,-5.70894 16.07054,-8.41625 24.22499,-8.63814 l 4.07921,-0.111 1.86954,-3.59681 c 1.02825,-1.97825 2.75783,-5.08182 3.84352,-6.89682 1.08569,-1.815 3.60201,-6.39534 5.59183,-10.17854 3.59843,-6.84162 3.62149,-6.869 4.29553,-5.1 1.03593,2.71879 0.39115,4.46807 -4.14102,11.23455 -6.66167,9.94578 -8.72657,14.05817 -8.83307,17.59171 -0.17768,5.89486 -8.7152,23.32709 -16.79256,34.28768 -19.8487,26.93376 -49.54315,46.76582 -82.43026,55.05277 -6.45381,1.62625 -13.97006,2.97452 -21.91273,3.93073 -5.33937,0.6428 -26.23919,1.18787 -30.3,0.79024 z M -673.36691,656.56935 c 0.0288,-0.69897 0.17096,-0.84114 0.36249,-0.36251 0.17333,0.43313 0.15201,0.95063 -0.0473,1.15001 -0.19938,0.19937 -0.34118,-0.15501 -0.31513,-0.7875 z m -10.09606,-113.95 c 0.007,-1.32 0.12953,-1.78935 0.27305,-1.04301 0.14351,0.74635 0.13806,1.82635 -0.0121,2.4 -0.15018,0.57366 -0.2676,-0.037 -0.26094,-1.35699 z m -0.10394,-3.65 c 0.0288,-0.69897 0.17096,-0.84114 0.3625,-0.3625 0.17332,0.43312 0.152,0.95062 -0.0474,1.15 -0.19938,0.19937 -0.34119,-0.15501 -0.31513,-0.7875 z"
       style="fill:#fad71a" />
    <path
       inkscape:connector-curvature="0"
       id="path3507"
       d="m -669.15071,523.83813 c -1.52614,-2.85161 -1.11553,-3.80209 6.41181,-14.84183 5.74383,-8.42402 7.50866,-11.95095 7.162,-14.31293 -0.3149,-2.14556 1.30318,-6.75103 5.49164,-15.63055 14.11965,-29.93365 44.58444,-56.88904 78.3525,-69.32666 29.36845,-10.81715 64.64913,-12.61839 99.66329,-5.08828 5.54561,1.19263 10.82456,2.55194 11.73101,3.02068 1.73596,0.8977 2.94021,2.2347 1.60534,1.7823 -3.61434,-1.22493 -17.60826,-1.78559 -25.18147,-1.00889 -22.07804,2.26429 -37.39591,9.05904 -74.07184,32.85702 -16.3434,10.60478 -29.66487,19.98095 -49.72785,35.00044 -9.57,7.16426 -19.02,13.99471 -21,15.17879 -6.73657,4.02857 -12.57607,5.81624 -20.01267,6.12659 l -4.41266,0.18414 -2.24359,4.1202 c -1.23397,2.26611 -3.4126,6.0102 -4.84139,8.3202 -1.42879,2.31 -3.87237,6.5982 -5.43018,9.52933 -2.5572,4.81158 -2.89684,5.20887 -3.49594,4.08945 z"
       style="fill:#1f93c4" />
    <path
       inkscape:connector-curvature="0"
       id="path3505"
       d="m -52.427805,708.51557 c -12.78534,-2.20581 -20.5515,-14.19929 -20.52528,-31.69766 0.0126,-8.48305 1.1034,-13.99114 3.8931,-19.6606 2.745,-5.57859 6.47418,-9.3781 11.52384,-11.74113 3.57666,-1.67371 4.56918,-1.86746 9.43488,-1.84179 6.9852,0.0368 11.07702,1.52565 15.63024,5.68702 6.1785,5.64679 9.27774,14.47347 9.29706,26.47777 0.0186,11.46179 -2.47938,19.59815 -7.7523,25.25237 -6.00168,6.4356 -13.20336,8.95567 -21.50154,7.52402 z m 7.94634,-12.80553 c 4.92132,-2.05625 7.76406,-9.091 7.77738,-19.24616 0.018,-13.55283 -5.02458,-21.73896 -12.63006,-20.50476 -6.78672,1.10133 -10.90512,10.18761 -10.24578,22.60476 0.70632,13.3005 7.05288,20.50783 15.09846,17.14616 z m -79.352035,11.20384 c 2.10018,-2.40747 21.76986,-27.65524 24.21756,-31.08537 5.12706,-7.18491 6.432,-11.82927 4.53108,-16.12659 -2.14098,-4.84002 -8.25504,-6.47448 -12.30432,-3.2893 -1.60985,1.2663 -3.37434,6.004 -3.37434,9.06016 v 1.6911 h -7.28676 -7.28676 l 0.36708,-3.93115 c 0.74934,-8.02419 5.47764,-14.69338 12.87558,-18.16081 2.89896,-1.35874 4.40754,-1.6388 9.73086,-1.80649 5.373,-0.16924 6.82908,-3.8e-4 9.89556,1.14758 4.995115,1.86994 10.029295,6.90737 11.351095,11.35843 1.83138,6.16688 0.96132,12.6572 -2.65332,19.79244 -1.63662,3.23068 -9.438175,14.71624 -12.332095,18.15546 -0.8037,0.95514 -1.46124,1.9859 -1.46124,2.29058 0,0.31315 3.78198,0.55396 8.699995,0.55396 h 8.7 v 5.7 5.7 h -22.292995 c -21.18035,0 -22.24727,-0.0524 -21.37697,-1.05 z m 117.4699753,-25.05 v -26.1 h -4.5000003 c -2.475,0 -4.48764,-0.2025 -4.47258,-0.45 0.015,-0.2475 0.49884,-2.745 1.07496,-5.55 l 1.04748,-5.1 10.3250403,-0.16416 10.3251005,-0.16417 v 31.81417 31.81416 h -6.9 -6.9000005 z M -291.96351,703.47531 c 0,-0.48871 0.69469,-1.06292 1.54376,-1.27602 0.86432,-0.21693 1.78857,-1.03137 2.1,-1.85049 0.63375,-1.66689 0.6537,-30.29826 0.0227,-32.58492 -0.2903,-1.05201 -0.89962,-1.5567 -2.0402,-1.68985 -1.09415,-0.12774 -1.62624,-0.5424 -1.62624,-1.26739 0,-0.85125 0.66152,-1.15798 3.15,-1.46056 1.7325,-0.21067 4.1625,-0.55317 5.4,-0.76112 2.12565,-0.35719 2.25,-0.29085 2.25,1.20042 0,1.93276 0.0237,1.93344 2.75708,0.0785 3.94014,-2.67385 9.56733,-1.67415 12.93013,2.29712 1.84197,2.17525 3.10339,7.38688 2.67341,11.04535 -0.98997,8.42308 -7.20758,13.8837 -15.0663,13.232 l -3.33673,-0.27671 0.1712,5.45112 0.17121,5.45112 1.95,0.85829 c 1.0725,0.47205 1.95,1.21455 1.95,1.65 0,0.61339 -1.68922,0.79171 -7.5,0.79171 -6.22378,0 -7.5,-0.1512 -7.5,-0.88857 z m 17.14405,-16.19116 c 3.0444,-1.27203 4.66798,-5.176 4.63831,-11.15303 -0.0472,-9.49991 -3.9673,-13.19818 -9.43289,-8.89896 -1.54129,1.21238 -1.54947,1.26573 -1.54947,10.10033 v 8.88151 l 1.95,0.96128 c 2.3741,1.17034 1.88271,1.15817 4.39405,0.10887 z m -134.67801,2.44243 c -2.91103,-1.61346 -3.86031,-5.48634 -2.15367,-8.78661 1.06212,-2.05391 4.29312,-3.8567 10.18763,-5.68435 l 4.2,-1.30225 -0.0128,-3.34592 c -0.0154,-4.03742 -1.30293,-5.84357 -4.16547,-5.84357 -2.66871,0 -3.83168,1.11923 -4.04108,3.88908 -0.15143,2.00312 -0.45228,2.48404 -1.86227,2.97695 -2.1553,0.75347 -3.65238,-0.13235 -3.91187,-2.31464 -0.24826,-2.08789 2.92345,-5.21088 6.32817,-6.23095 5.86959,-1.75857 11.42396,-0.34217 13.64495,3.47956 1.02571,1.76498 1.24749,3.3444 1.39015,9.9 0.22973,10.55649 0.27797,10.73041 2.86018,10.31138 1.68855,-0.27402 2.07008,-0.14556 2.07008,0.69698 0,1.5533 -3.11976,3.09164 -6.26985,3.09164 -2.16006,0 -3.11657,-0.33187 -4.2642,-1.47951 l -1.47951,-1.47951 -2.78259,1.47951 c -3.12115,1.65954 -7.39392,1.94132 -9.73781,0.64221 z m 10.79139,-3.79206 c 1.6542,-0.97716 1.74257,-1.23822 1.74257,-5.14767 v -4.11831 l -1.95,0.41993 c -4.51014,0.97127 -6.45,2.83387 -6.45,6.19311 0,3.45841 3.16129,4.71816 6.65743,2.65294 z m 57.21775,3.50157 c -4.92427,-2.23679 -7.20615,-6.7084 -6.73963,-13.20709 0.61642,-8.58671 5.93265,-13.86512 13.96445,-13.86512 6.83452,0 10.3802,3.11002 9.10189,7.98353 -0.40681,1.55095 -0.64083,1.66908 -2.97174,1.5 -2.36802,-0.17177 -2.57998,-0.33731 -3.30775,-2.58353 -0.42768,-1.32 -1.28591,-2.91323 -1.90719,-3.54052 -1.00134,-1.01103 -1.34241,-1.05237 -3.00403,-0.36411 -3.84198,1.59141 -5.83884,9.25686 -3.93986,15.12417 2.34444,7.24364 7.34861,8.97441 12.38585,4.28383 1.32213,-1.23114 1.66444,-1.32078 2.26776,-0.59382 0.92225,1.11124 -1.42146,4.025 -4.35864,5.41878 -2.76507,1.31211 -8.42818,1.23517 -11.49111,-0.15612 z m 26.68612,-0.52221 c -4.66721,-2.36668 -6.75575,-5.57629 -7.05313,-10.83901 -0.28744,-5.08716 0.5414,-8.18041 2.98458,-11.13848 2.618,-3.16972 5.86767,-4.54304 10.78874,-4.55933 5.71126,-0.0189 9.60475,2.08957 12.13269,6.57032 1.58503,2.80943 1.85248,3.89512 1.85248,7.51977 0,3.53679 -0.27189,4.70024 -1.6467,7.04617 -3.95876,6.75509 -11.93196,9.01442 -19.05866,5.40056 z m 10.91913,-2.32678 c 2.75885,-2.48549 2.98261,-12.33941 0.39842,-17.54542 -3.88666,-7.82994 -10.86025,-3.70238 -10.85211,6.4232 0.007,9.1378 5.80709,15.30843 10.45369,11.12222 z m 83.84734,2.30025 c -2.33859,-1.2217 -3.70009,-2.47119 -5.01851,-4.60565 -1.6211,-2.6245 -1.80926,-3.43294 -1.80926,-7.77347 0,-5.86189 1.54163,-9.16799 5.60384,-12.01771 2.44568,-1.71567 2.94043,-1.82664 8.1447,-1.82664 5.02931,0 5.76908,0.1511 8.01299,1.63657 4.8865,3.23488 7.24287,10.27591 5.51012,16.46469 -1.03361,3.69168 -5.33441,8.22251 -8.67165,9.13549 -4.27721,1.17011 -8.24678,0.82843 -11.77223,-1.01328 z m 10.81517,-2.1469 c 3.58663,-2.87872 3.12367,-16.46476 -0.6821,-20.01732 -2.27471,-2.12335 -4.20669,-2.26392 -6.34829,-0.46188 -2.17698,1.83181 -3.1045,4.62916 -3.10921,9.3772 -0.009,8.71383 5.54244,14.7918 10.1396,11.102 z m 53.75706,2.96456 c -6.10235,-2.23523 -8.93409,-9.71647 -6.61724,-17.48223 1.80126,-6.03753 6.83219,-9.8589 12.97953,-9.8589 6.41076,0 10.7377,3.77607 10.7377,9.37067 0,3.11831 -0.28686,3.21026 -10.04999,3.22114 l -7.35,0.008 v 2.21057 c 0,3.02675 2.17487,7.26952 4.4319,8.64582 3.17157,1.93396 6.68526,1.41781 9.82604,-1.44342 1.03455,-0.94246 1.52463,-1.07039 2.05785,-0.53714 0.9915,0.99145 -0.22668,3.0658 -2.85989,4.87013 -2.66099,1.82334 -9.48554,2.33958 -13.1559,0.99517 z m 9.9,-19.40762 c 0,-3.32411 -3.01056,-5.95603 -5.66045,-4.94855 -1.65471,0.62913 -3.93365,3.8502 -3.93731,5.56504 -0.002,0.91269 0.62548,1.05 4.79776,1.05 h 4.8 z m -322.8,18.87232 c 0,-0.4368 1.0125,-1.0443 2.25,-1.35 l 2.25,-0.55583 v -17.4 -17.4 l -2.25,-0.55582 c -1.2375,-0.3057 -2.25,-0.9132 -2.25,-1.35 0,-0.63714 2.88618,-0.79418 14.59619,-0.79418 h 14.59619 l 0.74396,4.85985 c 0.40918,2.67293 0.65839,4.94226 0.55381,5.04296 -0.10458,0.10071 -0.68326,0.27628 -1.28596,0.39015 -0.81676,0.15432 -1.30707,-0.40412 -1.92542,-2.19296 -0.4563,-1.32 -1.53073,-3.0075 -2.38765,-3.75 -1.36559,-1.18324 -2.22091,-1.35 -6.92457,-1.35 h -5.36655 v 7.22742 7.22741 l 4.05,-0.17741 4.05,-0.17742 0.55582,-2.25 c 0.41951,-1.69818 0.86096,-2.24989 1.8,-2.24958 1.18016,4e-4 1.24418,0.32573 1.24418,6.32219 0,5.90775 -0.0759,6.31048 -1.15961,6.14958 -0.69053,-0.10254 -1.34113,-0.85514 -1.60837,-1.86054 -0.74376,-2.79825 -1.51662,-3.27963 -5.3522,-3.33362 l -3.57982,-0.0504 v 8.03711 c 0,4.42041 0.16107,8.45685 0.35793,8.96986 0.19686,0.51302 1.27686,1.10514 2.4,1.31585 1.15853,0.21734 2.04207,0.7436 2.04207,1.21632 0,0.67266 -1.67654,0.83322 -8.7,0.83322 -6.81812,0 -8.7,-0.17178 -8.7,-0.79418 z m 31.3129,-0.24894 c 0.11048,-0.57371 0.73778,-1.14276 1.39399,-1.26456 2.55239,-0.47375 2.69311,-1.04289 2.69311,-10.89233 0,-9.85416 -0.13983,-10.41835 -2.7,-10.89365 -0.66,-0.12253 -1.2,-0.60905 -1.2,-1.08116 0,-0.59267 1.30014,-1.08622 4.2,-1.59439 6.53929,-1.14593 6.99039,-1.09982 6.54639,0.6692 -0.46646,1.85849 0.0148,1.85603 3.05361,-0.0157 1.37776,-0.84858 3.31875,-1.47951 4.55701,-1.48127 3.76786,-0.005 5.45448,3.48544 2.9123,6.02762 -1.36907,1.36907 -2.89216,1.16727 -5.28343,-0.70002 -1.00484,-0.78465 -1.71375,-0.9439 -2.44935,-0.55022 -2.29727,1.22946 -2.47448,2.0676 -2.30342,10.89415 l 0.16689,8.61094 1.65,0.78997 c 0.9075,0.43448 1.65,1.18024 1.65,1.65723 0,0.71036 -1.36479,0.86726 -7.54399,0.86726 -6.84281,0 -7.52533,-0.097 -7.34311,-1.04311 z m 55.0871,0.1119 c 0,-0.51216 0.81,-1.21358 1.8,-1.55869 l 1.8,-0.62749 v -9.7213 c 0,-10.04672 -0.25165,-11.16131 -2.52,-11.16131 -0.65339,0 -1.08,-0.44138 -1.08,-1.11739 0,-0.89932 0.61474,-1.19214 3.15,-1.50041 1.7325,-0.21067 4.1625,-0.55317 5.4,-0.76112 2.18997,-0.368 2.25,-0.32936 2.25,1.448 v 1.82608 l 3.15,-1.73671 c 5.43883,-2.99862 11.58862,-2.09268 12.98495,1.91286 0.36728,1.05357 0.66917,5.83022 0.67424,10.66823 0.005,4.81825 0.21304,9.08107 0.46221,9.47293 0.24916,0.39185 1.19003,0.99267 2.09081,1.33515 0.90079,0.34247 1.63779,1.03437 1.63779,1.53753 0,0.76898 -1.14806,0.91485 -7.2,0.91485 -5.8792,0 -7.2,-0.15909 -7.2,-0.86725 0,-0.477 0.7425,-1.22277 1.65,-1.65728 l 1.65,-0.79001 0.16558,-8.76269 c 0.0916,-4.84686 -0.10287,-9.46876 -0.43515,-10.34273 -0.7681,-2.02025 -3.11566,-2.10604 -6.92933,-0.25321 l -2.73098,1.32681 0.16494,9.01587 0.16494,9.01587 1.65,0.79005 c 0.9075,0.43453 1.65,1.18032 1.65,1.65732 0,0.70816 -1.3208,0.86725 -7.2,0.86725 -6.10725,0 -7.2,-0.14133 -7.2,-0.93121 z m 121.31289,-0.1119 c 0.11049,-0.57371 0.73779,-1.13648 1.394,-1.25061 2.48308,-0.43186 2.61925,-1.35315 2.67375,-18.08964 0.0297,-9.12151 -0.20044,-16.71663 -0.53304,-17.59144 -0.40145,-1.0559 -1.11178,-1.60006 -2.26133,-1.73234 -0.9658,-0.11113 -1.7544,-0.60669 -1.861,-1.16946 -0.15021,-0.79299 0.73419,-1.11102 4.7038,-1.69145 2.68884,-0.39316 5.26727,-0.86007 5.72986,-1.03758 0.70055,-0.26883 0.84107,1.33662 0.84107,9.60939 v 9.93215 l 3.36093,-1.76796 c 2.41142,-1.26848 4.20239,-1.76795 6.33944,-1.76795 6.30417,0 7.21216,1.77631 7.58008,14.829 l 0.27424,9.72899 2.02265,0.66754 c 1.11246,0.36714 2.02266,1.0516 2.02266,1.521 0,0.69245 -1.41507,0.85347 -7.5,0.85347 -6.14083,0 -7.5,-0.15717 -7.5,-0.86725 0,-0.477 0.7425,-1.22275 1.65,-1.65723 l 1.65,-0.78997 0.17224,-8.69277 c 0.0947,-4.78103 0.0241,-9.29248 -0.15709,-10.02546 -0.70688,-2.86054 -4.18647,-2.87515 -8.26515,-0.0347 l -1.65,1.14908 v 8.68976 8.68976 l 2.1,0.87744 c 1.155,0.48259 2.1,1.27881 2.1,1.76938 0,0.74197 -1.26849,0.89195 -7.54399,0.89195 -6.84281,0 -7.52533,-0.0969 -7.34312,-1.0431 z m 64.2,0 c 0.11049,-0.57371 0.73779,-1.13648 1.39399,-1.25061 2.36153,-0.41072 2.69312,-1.7356 2.69312,-10.7604 0,-4.79786 -0.2756,-9.13971 -0.62111,-9.78532 -0.35617,-0.66551 -1.25194,-1.16056 -2.1,-1.16056 -1.04245,0 -1.47889,-0.32976 -1.47889,-1.11739 0,-0.89932 0.61474,-1.19214 3.15,-1.50041 1.7325,-0.21067 4.1625,-0.55317 5.4,-0.76112 2.19448,-0.36876 2.25,-0.33253 2.25,1.46837 v 1.84646 l 3.36093,-1.76796 c 5.1949,-2.73267 10.46296,-2.32068 12.63076,0.98779 0.85842,1.31012 1.11524,3.46119 1.38138,11.57048 l 0.32693,9.96117 1.65,0.78904 c 0.9075,0.43398 1.65,1.17932 1.65,1.65632 0,0.70816 -1.32081,0.86725 -7.2,0.86725 -5.8792,0 -7.2,-0.15909 -7.2,-0.86725 0,-0.477 0.7425,-1.22279 1.65,-1.65732 l 1.65,-0.79005 0.16568,-9.15283 c 0.10197,-5.63334 -0.0792,-9.61036 -0.47111,-10.34269 -0.85061,-1.58937 -3.26385,-1.53097 -6.61744,0.16014 l -2.67713,1.35 -0.1731,7.8 c -0.0952,4.29 -0.0353,8.34 0.13323,9 0.16848,0.66 1.14136,1.66998 2.16197,2.24441 1.0206,0.57442 1.68721,1.31692 1.48136,1.65 -0.21823,0.35309 -3.37994,0.60559 -7.58287,0.60559 -6.52421,0 -7.18951,-0.099 -7.0077,-1.04311 z"
       style="fill:#6d6c6d"
       sodipodi:nodetypes="scsssscssscssscsssscccssssssssscccsccccscscccccccccsssssssssssscccsssccsssscsscssccssssssssssscsccsscsssssssssssssssssssssssssscssssssssssssscscsssccssscsccsscscscscccssscscsssscccccssscsscssssscccssssssccsssscsssccsscsssssscsscscsssscssscccsssscsssssssscssscssssscscscccsssccsscssssscssscssssscscscscscsc" />
    <path
       inkscape:connector-curvature="0"
       id="path3503"
       d="m -666.53511,712.14843 c -1.82707,-0.74059 -2.47454,-1.73047 -6.38553,-9.76248 -5.42281,-11.13684 -7.96187,-14.98606 -10.63949,-16.12949 -1.67879,-0.71689 -3.47926,-2.59363 -7.04767,-7.34621 -17.346,-23.10223 -25.93784,-48.42377 -27.00597,-79.5909 -1.14727,-33.47663 8.64398,-65.05519 29.85878,-96.3 9.26881,-13.65096 23.79034,-30.27138 26.47016,-30.29605 0.23619,-0.002 -1.39009,2.50821 -3.61398,5.57864 -4.51071,6.22772 -7.37762,11.41703 -10.53849,19.07534 -6.623,16.04651 -8.70216,32.18544 -7.56766,58.74207 1.32937,31.11805 3.75281,56.93007 8.19643,87.29999 1.81344,12.39396 2.14588,23.76453 0.86375,29.543 -0.45678,2.05865 -1.85418,5.83865 -3.10534,8.4 l -2.27484,4.657 2.24656,3.6 c 1.2356,1.98 3.6934,6.165 5.46178,9.3 1.76838,3.135 4.20032,7.185 5.4043,9 3.21943,4.85328 3.19915,4.80457 1.98345,4.76197 -0.59698,-0.0209 -1.63478,-0.26071 -2.30624,-0.53288 z"
       style="fill:#e41b1f" />
    <path
       inkscape:connector-curvature="0"
       id="path3501"
       d="m -306.74145,556.26935 c -5.16284,-14.76213 -16.47314,-30.80726 -29.27468,-41.52995 -16.99329,-14.23373 -51.83068,-34.91914 -95.29816,-56.58522 -10.56,-5.26356 -21.39309,-11.01892 -24.07354,-12.7897 -5.80622,-3.83573 -10.60758,-8.84204 -13.26542,-13.83163 l -1.93895,-3.64004 -6.46105,-0.39761 c -3.55357,-0.21868 -10.6004,-0.56721 -15.65962,-0.77451 l -9.19859,-0.3769 1.55801,-1.558 c 1.90719,-1.9072 4.22986,-1.98988 14.00979,-0.49875 9.52807,1.45273 14.94241,1.39171 16.2332,-0.18295 1.37262,-1.6745 6.8069,-2.45955 17.49617,-2.52753 10.52605,-0.0669 15.4668,0.38125 24.9,2.25877 34.14496,6.79598 64.43388,25.33115 86.7463,53.08402 8.9732,11.16114 19.53051,29.69628 25.63411,45.00503 5.7269,14.36388 12.32436,38.39497 10.54091,38.39497 -0.29263,0 -1.16945,-1.8225 -1.94848,-4.05 z"
       style="fill:#1d9b51" />
    <path
       inkscape:connector-curvature="0"
       id="path3499"
       d="m -567.51428,805.05492 c -7.98014,-0.74221 -20.60874,-3.37426 -28.93731,-6.03112 -24.96769,-7.96479 -44.32285,-19.92848 -62.58097,-38.68213 -11.30763,-11.61453 -19.97155,-23.34531 -28.42199,-38.48282 -6.45003,-11.55412 -14.75973,-30.95512 -14.75973,-34.46016 0,-1.63511 0.38748,-1.15119 2.77028,3.45982 3.82281,7.39762 11.63863,17.57284 18.67284,24.3097 12.93206,12.38542 26.23052,19.87065 62.2645,35.04646 17.17923,7.23507 37.81715,14.98701 59.04803,22.17938 24.53977,8.31333 30.80366,11.91206 37.84434,21.74239 0.87977,1.22833 1.14963,1.24599 12,0.78516 6.105,-0.2593 12.1125,-0.66592 13.35,-0.90363 2.68933,-0.51656 2.94443,0.26804 0.66909,2.05782 -1.47087,1.15698 -2.35897,1.24355 -12.75772,1.24355 -11.01528,0 -11.18537,0.0195 -11.76909,1.35 -0.8391,1.91259 -3.882,3.20318 -10.79228,4.57737 -11.73548,2.33372 -24.28407,2.95369 -36.59999,1.80821 z"
       style="fill:#801d6b" />
    <path
       inkscape:connector-curvature="0"
       id="path3497"
       d="m -569.33519,634.68551 c -0.21546,-0.34861 -4.96203,-14.18611 -10.54796,-30.75 -10.84879,-32.16984 -11.14352,-32.81616 -14.96459,-32.81616 -1.4322,0 -1.7664,-0.25551 -1.76577,-1.35 6e-4,-1.34997 10e-4,-1.35 10.80034,-1.35 l 10.79957,0 -3.4e-4,1.35 c -2.9e-4,1.13664 -0.32449,1.35 -2.05127,1.35 -2.89945,0 -3.94907,0.5344 -3.94907,2.0106 0,2.17395 15.8088,50.26799 16.25593,49.45434 1.25769,-2.28862 11.34407,-35.34509 11.34407,-37.17833 0,-3.32265 -2.72939,-10.78167 -4.5134,-12.33448 -0.8517,-0.74132 -2.61461,-1.51833 -3.91758,-1.72668 -1.89576,-0.30315 -2.36891,-0.6332 -2.36845,-1.65214 5.7e-4,-1.2542 0.1762,-1.27331 11.70025,-1.27331 l 11.69968,0 -2.5e-4,1.35 c -2.2e-4,1.14755 -0.32109,1.35 -2.1397,1.35 -3.24351,0 -4.46055,0.89961 -4.46055,3.29715 0,1.78575 13.72446,45.88636 15.03223,48.30284 0.60382,1.11575 -0.43343,3.98604 8.66201,-23.96961 4.12816,-12.68828 7.50575,-23.65772 7.50575,-24.37653 0,-1.82077 -1.34679,-2.75018 -4.50033,-3.10562 -2.25489,-0.25416 -2.69967,-0.51386 -2.69967,-1.57626 0,-1.24761 0.20156,-1.27197 10.52208,-1.27197 10.11435,0 10.51541,0.0457 10.35,1.17778 -0.11683,0.79968 -0.82259,1.31006 -2.1984,1.58983 -2.51201,0.51081 -4.85845,2.2162 -6.18478,4.4951 -0.55611,0.95551 -5.37135,14.42702 -10.70052,29.93669 -5.32918,15.50966 -9.98119,28.55095 -10.33779,28.98063 -0.35661,0.42968 -1.48137,0.69995 -2.49948,0.60061 l -1.8511,-0.18065 -6.6,-19.80298 c -3.63,-10.89165 -6.83625,-20.16798 -7.125,-20.61406 -0.44082,-0.68102 -0.60762,-0.68054 -1.04028,0.003 -0.2834,0.44773 -3.39089,9.45405 -6.90553,20.01405 -3.51464,10.56 -6.65708,19.5375 -6.9832,19.95 -0.72135,0.91244 -3.82378,0.99497 -4.3669,0.11617 z m 194.8785,-0.27463 c -10.50421,-2.28213 -20.1256,-11.6188 -23.17741,-22.49153 -2.33114,-8.30523 -1.56363,-17.99157 2.02066,-25.5018 4.05306,-8.4924 13.26336,-15.90126 22.0416,-17.73048 5.35071,-1.11499 13.87094,-0.42335 19.95755,1.62008 l 5.1,1.7122 0.1672,7.91914 0.1672,7.91913 -4.9672,-2.32504 c -6.58769,-3.08357 -9.81075,-3.82601 -15.12807,-3.48476 -8.97005,0.57566 -14.45783,6.21396 -15.88982,16.32564 -1.83487,12.95654 5.005,22.34225 16.77869,23.02382 5.19203,0.30056 9.47188,-0.70148 15.07352,-3.52918 1.90534,-0.96182 3.60696,-1.74876 3.78137,-1.74876 0.17441,0 0.31711,3.48042 0.31711,7.73427 l 0,7.73427 -4.65,1.2413 c -9.631,2.57095 -15.17111,2.97678 -21.5924,1.5817 z m 49.9424,0.10347 c -1.65,-0.42891 -3.82608,-1.21359 -4.83572,-1.74373 -3.12717,-1.64202 -6.96665,-5.97448 -8.90755,-10.05128 -1.69295,-3.55599 -1.85645,-4.42924 -1.85351,-9.89999 0.003,-5.23447 0.20646,-6.43446 1.59624,-9.40509 2.12791,-4.54838 5.89244,-8.50914 9.99564,-10.51665 4.35073,-2.12861 13.27432,-2.69246 17.89698,-1.13082 5.80941,1.96253 10.9471,7.05327 13.21677,13.09597 1.48938,3.96528 1.31329,12.50011 -0.34617,16.77756 -3.01228,7.76454 -10.43021,12.9892 -19.0522,13.41904 -2.72758,0.13598 -5.97334,-0.0935 -7.71048,-0.54501 z m 9.11094,-11.23497 c 5.74217,-2.17565 8.37382,-9.5075 5.5249,-15.39256 -4.47634,-9.2469 -17.05952,-6.47646 -17.81165,3.9216 -0.56635,7.8298 5.9183,13.8839 12.28675,11.47096 z m 143.12715,11.10972 c -1.73906,-0.46819 -3.98091,-1.27478 -4.98191,-1.79242 -2.93717,-1.51886 -6.55863,-5.54383 -8.26741,-9.18856 -1.42981,-3.04972 -1.58877,-4.07914 -1.58877,-10.28877 0,-6.33921 0.13626,-7.17748 1.67654,-10.31406 2.18255,-4.44449 7.14647,-8.99388 11.67546,-10.70049 4.7015,-1.77162 12.8648,-1.51101 17.10993,0.54622 6.77347,3.2825 11.65456,10.81844 12.26896,18.94211 l 0.34231,4.52621 -15.4616,0 -15.4616,0 0.37998,1.8999 c 0.44541,2.22708 2.85589,5.58012 4.74441,6.59959 1.91152,1.03189 6.74362,0.81445 8.6751,-0.39036 0.90778,-0.56626 2.22672,-1.71015 2.93097,-2.54198 l 1.28046,-1.51244 5.76498,1.92061 c 6.58846,2.19494 6.5988,2.23156 1.94485,6.88551 -5.49948,5.49948 -14.6845,7.65647 -23.03266,5.40893 z m 14.86191,-27.38032 c 0,-1.65463 -2.50786,-5.69442 -4.12983,-6.65254 -2.51281,-1.48436 -6.63869,-1.33931 -9.13145,0.32103 -2.13206,1.42008 -4.49824,5.37495 -3.84662,6.4293 0.566,0.91582 17.1079,0.82126 17.1079,-0.0978 z m 143.69999,27.93358 c -0.66,-0.17275 -2.16096,-0.56014 -3.33552,-0.86085 -3.25464,-0.83329 -7.4826,-3.9174 -9.9174,-7.23428 -4.36692,-5.94895 -5.5659,-14.1792 -3.18738,-21.87995 1.06392,-3.44444 1.83342,-4.65167 4.95,-7.76571 5.14182,-5.13754 8.73342,-6.45196 16.8903,-6.18131 7.089,0.23522 10.16142,1.45523 14.44008,5.73392 3.47664,3.47663 5.52114,7.53942 6.18672,12.29417 1.974,14.10122 -6.75474,25.37954 -20.11632,25.99214 -2.59074,0.11879 -5.25048,0.0746 -5.91048,-0.0981 z m 7.31094,-11.66298 c 3.68478,-1.39612 6.75,-6.00685 6.77586,-10.19223 0.0186,-3.00639 -2.65896,-8.06732 -5.04996,-9.54502 -4.21308,-2.60383 -9.65214,-1.08061 -12.82446,3.5915 -1.2114,1.78407 -1.38486,2.65924 -1.19946,6.05134 0.2619,4.79078 1.9932,7.74621 5.58708,9.53732 2.7129,1.35206 4.27134,1.48142 6.71094,0.55709 z m -495.28552,9.98364 c 0.12615,-0.8633 0.84049,-1.32827 2.57459,-1.67583 4.46256,-0.8944 4.50115,-1.04976 4.49116,-18.08431 -0.0101,-17.14472 -0.15523,-17.84603 -3.81741,-18.4413 -2.02349,-0.32891 -3.33603,-1.26892 -3.36456,-2.40963 -0.005,-0.20206 1.40831,-0.53437 3.14081,-0.73845 1.7325,-0.20409 5.04,-0.86786 7.35,-1.47505 l 4.2,-1.10398 -0.19348,19.67623 -0.19348,19.67623 1.51621,1.5162 c 1.05141,1.05142 2.16832,1.51621 3.64348,1.51621 1.80618,0 2.12721,0.20378 2.12687,1.35 -4.1e-4,1.34939 -0.005,1.35001 -10.8246,1.36925 -10.47236,0.0186 -10.81851,-0.0196 -10.64959,-1.17557 z m 26.39752,0.0424 c 0.12808,-0.86096 0.92036,-1.36957 2.86338,-1.83816 1.87626,-0.4525 2.91844,-1.10017 3.45612,-2.14785 1.0933,-2.13031 0.81847,-57.2692 -0.29514,-59.21563 -0.55376,-0.96788 -1.42604,-1.36437 -3.3,-1.5 -2.04697,-0.14816 -2.58222,-0.42873 -2.72514,-1.42848 -0.16195,-1.13284 0.42834,-1.36177 6.6,-2.55975 3.72782,-0.7236 7.04785,-1.31137 7.37785,-1.30617 0.39254,0.006 0.54116,8.10059 0.42983,23.40974 -0.0936,12.87016 0.0414,23.39928 0.3,23.39805 1.74736,-0.008 9.25794,-6.42597 12.87386,-11.00046 2.86974,-3.6305 2.95307,-4.99371 0.34631,-5.66561 -1.34829,-0.34753 -2.00916,-0.90824 -2.14173,-1.81716 -0.19032,-1.30487 -0.1226,-1.31455 9.19173,-1.31455 9.3376,0 9.38253,0.006 9.19173,1.32556 -0.1435,0.99212 -0.75834,1.44268 -2.44418,1.79114 -4.4559,0.921 -7.91636,3.26426 -12.6401,8.55926 -2.53409,2.84056 -4.6098,5.49301 -4.61267,5.89434 -0.003,0.40133 3.02733,5.24206 6.7338,10.75716 5.79034,8.61585 7.13283,10.2418 9.53642,11.55 1.53857,0.83739 3.36836,1.52253 4.0662,1.52253 0.91579,0 1.2688,0.3756 1.2688,1.35 0,1.33077 -0.11111,1.35 -7.8,1.35 -7.7291,0 -7.8,-0.0125 -7.8,-1.3739 0,-1.95159 -1.72878,-5.09936 -6.56167,-11.94748 -4.79588,-6.7957 -5.68869,-7.72299 -7.98833,-8.29691 l -1.65,-0.4118 0.009,8.31505 c 0.005,4.57328 0.26156,8.71413 0.57001,9.20192 0.30845,0.48778 1.45181,1.18548 2.54081,1.55046 1.18802,0.39815 2.04851,1.12339 2.15129,1.81312 0.16272,1.09211 -0.32577,1.15145 -9.77708,1.18771 -9.59162,0.0368 -9.94201,-0.005 -9.77129,-1.15216 z m 51.00248,-0.0424 c 0.12615,-0.8633 0.84049,-1.32827 2.57459,-1.67583 4.46256,-0.8944 4.50115,-1.04976 4.49116,-18.08431 -0.0101,-17.14472 -0.15523,-17.84603 -3.81741,-18.4413 -2.02349,-0.32891 -3.33603,-1.26892 -3.36456,-2.40963 -0.005,-0.20206 1.40831,-0.53437 3.14081,-0.73845 1.7325,-0.20409 5.04,-0.86783 7.35,-1.47499 l 4.2,-1.10391 -0.1995,19.67014 -0.1995,19.67015 1.52223,1.52223 c 1.05717,1.05717 2.17213,1.52222 3.6495,1.52222 1.80618,0 2.12721,0.20378 2.12687,1.35 -4.1e-4,1.34939 -0.005,1.35001 -10.8246,1.36925 -10.47236,0.0186 -10.81852,-0.0196 -10.64959,-1.17557 z m 138.47459,-20.44367 0,-21.3 6.3,0 6.3,0 0,2.4 c 0,1.32 0.13266,2.4 0.29481,2.4 0.16214,0 1.50025,-0.92014 2.97357,-2.04475 3.47191,-2.65017 6.38522,-3.61391 10.83162,-3.58316 5.63417,0.0389 9.66023,2.9332 12.41927,8.92791 1.31058,2.84758 1.39059,3.8002 1.57489,18.74999 l 0.19418,15.75 -6.34418,0 -6.34416,0 -0.004,-12.15 c -0.002,-6.90794 -0.28518,-13.16506 -0.65656,-14.50271 -0.98088,-3.53378 -3.49009,-5.74728 -6.5148,-5.74728 -3.1199,0 -5.1407,1.31937 -6.80297,4.44165 -1.20374,2.26102 -1.3255,3.48176 -1.51699,15.20834 l -0.2082,12.75 -6.24845,0 -6.24843,0 0,-21.29999 z m 60.88718,11.27137 c -2.57679,-5.53926 -7.05162,-15.13387 -9.94407,-21.32137 l -5.25899,-11.25 6.73074,0 6.73075,0 5.67719,12.29316 c 3.12246,6.76124 5.84287,12.29624 6.04537,12.3 0.20249,0.004 2.85713,-5.32566 5.89919,-11.84316 3.04206,-6.5175 5.73447,-12.06209 5.98313,-12.3213 0.24866,-0.25922 3.29997,-0.39422 6.78069,-0.3 l 6.32858,0.1713 -9.76963,21 -9.76963,20.99999 -5.37412,0.17138 -5.37412,0.17137 -4.68508,-10.07137 z m 90.31281,-11.27137 0,-21.3 6.3,0 6.3,0 0,2.47121 0,2.47121 1.95,-1.48228 c 9.17982,-6.978 19.00518,-5.59016 23.72064,3.35056 l 1.62936,3.0893 0.18528,16.34999 0.18528,16.35 -6.33528,0 -6.33528,0 0,-13.22979 c 0,-10.50693 -0.18276,-13.58323 -0.888,-14.94702 -3.0999,-5.99452 -10.07748,-5.54833 -12.97422,0.82966 -0.96594,2.12685 -1.11318,4.07674 -1.12458,14.89715 l -0.0132,12.45 -6.3,0 -6.3,0 0,-21.29999 z m 53.26014,5.84999 -0.16014,-15.44999 -2.25,-0.18623 -2.25,-0.18621 0,-5.66379 0,-5.66377 2.4,0 2.4,0 0,-7.5 0,-7.5 6.3,0 6.3,0 0,7.5 0,7.5 3,0 3,0 0,5.7 0,5.7 -3,0 -3,0 0,15.59999 0,15.6 -6.28986,0 -6.28986,0 -0.16014,-15.45 z m 27.13986,-5.84999 0,-21.3 6.3,0 6.3,0 0,21.3 0,21.29999 -6.3,0 -6.3,0 0,-21.29999 z m 77.4,0 0,-21.3 6.2655,0 6.2655,0 0.1845,2.36469 0.1845,2.36469 3.44604,-2.32133 c 5.32164,-3.58482 11.54304,-4.39051 16.05396,-2.07906 1.9419,0.99506 5.02224,4.28099 6.15984,6.57101 1.76262,3.54804 2.24016,8.22288 2.24016,21.92953 l 0,13.77046 -6.3,0 -6.3,0 0,-11.37046 c 0,-13.24051 -0.5559,-16.69312 -3.09684,-19.23407 -1.42404,-1.42404 -2.31684,-1.79546 -4.3158,-1.79546 -3.11022,0 -4.8072,1.13807 -6.5454,4.38964 -1.24704,2.33282 -1.35558,3.41208 -1.53462,15.26035 l -0.19272,12.75 -6.25728,0 -6.25734,0 0,-21.29999 z m -76.56792,-31.67061 c -3.96564,-3.63421 -3.15282,-9.98143 1.60494,-12.53303 2.46462,-1.3218 4.12728,-1.37807 6.8691,-0.23247 5.49864,2.29748 5.98806,11.03436 0.78,13.92439 -0.76236,0.42305 -2.67258,0.77876 -4.24494,0.79045 -2.41068,0.0179 -3.1959,-0.28764 -5.0091,-1.94934 z m -441.55934,-1.90212 c -1.97821,-1.97822 -1.94928,-4.70526 0.0714,-6.7259 1.28644,-1.28645 1.91213,-1.48516 3.75,-1.19097 2.6211,0.41956 4.30591,2.25206 4.30591,4.68334 0,2.37019 -2.38259,4.70626 -4.8,4.70626 -1.16902,0 -2.39893,-0.54439 -3.32727,-1.47273 z m 77.4,0 c -1.97822,-1.97822 -1.94928,-4.70526 0.0713,-6.7259 1.28645,-1.28645 1.91214,-1.48516 3.75,-1.19097 2.6211,0.41956 4.30592,2.25206 4.30592,4.68334 0,2.37019 -2.38259,4.70626 -4.8,4.70626 -1.16902,0 -2.39893,-0.54439 -3.32727,-1.47273 z"
       style="fill:#212222" />
    <g
       aria-label="2017"
       transform="matrix(3.9288387,0,0,3.7952054,949.08631,1349.6262)"
       style="font-style:normal;font-variant:normal;font-weight:normal;font-stretch:normal;font-size:22.5px;line-height:100%;font-family:'Noto Mono';-inkscape-font-specification:'Noto Mono, Normal';text-align:end;letter-spacing:0px;word-spacing:0px;writing-mode:lr-tb;text-anchor:end;fill:#6d6c6d;fill-opacity:1;stroke:#6d6c6d;stroke-width:1px;stroke-linecap:butt;stroke-linejoin:miter;stroke-opacity:1"
       id="flowRoot4547">
      <path
         d="m -225.34951,-185.27396 h -10.34996 v 2.78999 h 6.16497 l -5.39998,12.95995 h 3.01499 z"
         style="font-style:normal;font-variant:normal;font-weight:bold;font-stretch:normal;font-size:22.49991608px;font-family:Cabin;-inkscape-font-specification:'Cabin, Bold';font-variant-ligatures:normal;font-variant-caps:normal;font-variant-numeric:normal;font-feature-settings:normal;text-align:end;writing-mode:lr-tb;text-anchor:end;fill:#6d6c6d;fill-opacity:1;stroke:#6d6c6d;stroke-opacity:1"
         id="path4561"
         inkscape:connector-curvature="0" />
    </g>
  </g>
</svg>
