<?xml version="1.0" encoding="UTF-8" standalone="no"?>
<!-- Created with Inkscape (http://www.inkscape.org/) -->

<svg
   xmlns:dc="http://purl.org/dc/elements/1.1/"
   xmlns:cc="http://creativecommons.org/ns#"
   xmlns:rdf="http://www.w3.org/1999/02/22-rdf-syntax-ns#"
   xmlns:svg="http://www.w3.org/2000/svg"
   xmlns="http://www.w3.org/2000/svg"
   xmlns:sodipodi="http://sodipodi.sourceforge.net/DTD/sodipodi-0.dtd"
   xmlns:inkscape="http://www.inkscape.org/namespaces/inkscape"
   width="118.75884mm"
   height="120.17137mm"
   viewBox="0 0 420.79905 425.80407"
   id="svg2"
   version="1.1"
   inkscape:version="0.91 r13725"
   sodipodi:docname="Logo Wikiconvention Frabcophone square.svg">
  <defs
     id="defs4" />
  <sodipodi:namedview
     id="base"
     pagecolor="#ffffff"
     bordercolor="#666666"
     borderopacity="1.0"
     inkscape:pageopacity="0.0"
     inkscape:pageshadow="2"
     inkscape:zoom="0.35"
     inkscape:cx="428.14408"
     inkscape:cy="508.07066"
     inkscape:document-units="px"
     inkscape:current-layer="layer1"
     showgrid="false"
     fit-margin-top="0"
     fit-margin-left="0"
     fit-margin-right="0"
     fit-margin-bottom="0"
     inkscape:window-width="1309"
     inkscape:window-height="744"
     inkscape:window-x="57"
     inkscape:window-y="24"
     inkscape:window-maximized="1" />
  <metadata
     id="metadata7">
    <rdf:RDF>
      <cc:Work
         rdf:about="">
        <dc:format>image/svg+xml</dc:format>
        <dc:type
           rdf:resource="http://purl.org/dc/dcmitype/StillImage" />
        <dc:title></dc:title>
      </cc:Work>
    </rdf:RDF>
  </metadata>
  <g
     inkscape:label="Calque 1"
     inkscape:groupmode="layer"
     id="layer1"
     transform="translate(717.70395,-400.05952)">
    <path
       inkscape:connector-curvature="0"
       id="path3509"
       d="m -489.21429,825.72848 c -1.155,-0.1131 -5.205,-0.50084 -9,-0.86163 -15.08398,-1.43405 -34.08425,-5.51781 -36.24302,-7.78978 -0.69134,-0.72758 -0.87695,-1.1085 -0.41246,-0.84649 1.70248,0.96039 14.87248,1.78229 22.131,1.38114 17.51458,-0.96797 32.17454,-5.9184 52.92595,-17.87221 21.98636,-12.66521 51.52647,-32.63287 77.69853,-52.52039 5.28,-4.01215 11.31226,-8.4478 13.40502,-9.85701 8.47809,-5.70894 16.07054,-8.41625 24.22499,-8.63814 l 4.07921,-0.111 1.86954,-3.59681 c 1.02825,-1.97825 2.75783,-5.08182 3.84352,-6.89682 1.08569,-1.815 3.60201,-6.39534 5.59183,-10.17854 3.59843,-6.84162 3.62149,-6.869 4.29553,-5.1 1.03593,2.71879 0.39115,4.46807 -4.14102,11.23455 -6.66167,9.94578 -8.72657,14.05817 -8.83307,17.59171 -0.17768,5.89486 -8.7152,23.32709 -16.79256,34.28768 -19.8487,26.93376 -49.54315,46.76582 -82.43026,55.05277 -6.45381,1.62625 -13.97006,2.97452 -21.91273,3.93073 -5.33937,0.6428 -26.23919,1.18787 -30.3,0.79024 z M -673.36691,656.56935 c 0.0288,-0.69897 0.17096,-0.84114 0.36249,-0.36251 0.17333,0.43313 0.15201,0.95063 -0.0473,1.15001 -0.19938,0.19937 -0.34118,-0.15501 -0.31513,-0.7875 z m -10.09606,-113.95 c 0.007,-1.32 0.12953,-1.78935 0.27305,-1.04301 0.14351,0.74635 0.13806,1.82635 -0.0121,2.4 -0.15018,0.57366 -0.2676,-0.037 -0.26094,-1.35699 z m -0.10394,-3.65 c 0.0288,-0.69897 0.17096,-0.84114 0.3625,-0.3625 0.17332,0.43312 0.152,0.95062 -0.0474,1.15 -0.19938,0.19937 -0.34119,-0.15501 -0.31513,-0.7875 z"
       style="fill:#fad71a" />
    <path
       inkscape:connector-curvature="0"
       id="path3507"
       d="m -669.15071,523.83813 c -1.52614,-2.85161 -1.11553,-3.80209 6.41181,-14.84183 5.74383,-8.42402 7.50866,-11.95095 7.162,-14.31293 -0.3149,-2.14556 1.30318,-6.75103 5.49164,-15.63055 14.11965,-29.93365 44.58444,-56.88904 78.3525,-69.32666 29.36845,-10.81715 64.64913,-12.61839 99.66329,-5.08828 5.54561,1.19263 10.82456,2.55194 11.73101,3.02068 1.73596,0.8977 2.94021,2.2347 1.60534,1.7823 -3.61434,-1.22493 -17.60826,-1.78559 -25.18147,-1.00889 -22.07804,2.26429 -37.39591,9.05904 -74.07184,32.85702 -16.3434,10.60478 -29.66487,19.98095 -49.72785,35.00044 -9.57,7.16426 -19.02,13.99471 -21,15.17879 -6.73657,4.02857 -12.57607,5.81624 -20.01267,6.12659 l -4.41266,0.18414 -2.24359,4.1202 c -1.23397,2.26611 -3.4126,6.0102 -4.84139,8.3202 -1.42879,2.31 -3.87237,6.5982 -5.43018,9.52933 -2.5572,4.81158 -2.89684,5.20887 -3.49594,4.08945 z"
       style="fill:#1f93c4" />
    <path
       inkscape:connector-curvature="0"
       id="path3505"
       d="m -389.03213,676.45002 c -8.08982,-1.3957 -13.00378,-8.98446 -12.98717,-20.05638 0.009,-5.36756 0.69817,-8.85275 2.46332,-12.44005 1.73686,-3.52979 4.09646,-5.9339 7.29158,-7.42907 2.2631,-1.05903 2.8911,-1.18162 5.96983,-1.16538 4.41982,0.0233 7.00887,0.96534 9.88987,3.5984 3.9094,3.57296 5.8704,9.15795 5.88263,16.75354 0.0121,7.25233 -1.5688,12.40053 -4.90519,15.97819 -3.79751,4.07206 -8.35429,5.66661 -13.60487,4.76075 z m 5.02795,-8.10258 c 3.11392,-1.30107 4.91264,-5.75224 4.92106,-12.17781 0.0121,-8.57542 -3.17925,-13.75511 -7.99154,-12.97418 -4.29424,0.69686 -6.9001,6.44611 -6.48292,14.30294 0.44692,8.41576 4.46265,12.97611 9.5534,10.84905 z m 53.73097,7.98489 c -8.68037,-1.93 -12.87607,-10.28917 -10.02954,-19.98196 0.33579,-1.14342 1.28529,-3.46726 2.10999,-5.16408 1.37548,-2.83004 2.76786,-4.99354 8.10938,-12.60027 l 1.89821,-2.70323 5.45639,-0.0121 c 4.31547,-0.0104 5.37717,0.0871 5.0773,0.4625 -0.20855,0.26101 -2.38493,3.20798 -4.83648,6.54886 l -4.45733,6.0743 3.56202,0.21257 c 4.20991,0.25122 6.68845,1.36495 9.07736,4.07891 2.62224,2.979 3.20472,4.64865 3.20472,9.18588 0,3.65511 -0.0923,4.16858 -1.11197,6.18083 -3.13343,6.18405 -10.6025,9.37586 -18.06005,7.71776 z m 7.252,-8.68152 c 1.52113,-1.01086 2.99839,-3.72042 2.99839,-5.4995 0,-3.9533 -3.70312,-7.00597 -7.46858,-6.15672 -4.65152,1.04909 -6.65163,6.6953 -3.63972,10.27475 1.96914,2.3402 5.7087,2.97719 8.10991,1.38147 z m -111.19217,7.78575 c 1.32886,-1.5233 13.77466,-17.49857 15.32341,-19.66894 3.2441,-4.54619 4.0698,-7.48487 2.86701,-10.20395 -1.35469,-3.06247 -5.22331,-4.09667 -7.78544,-2.08128 -1.01861,0.80125 -2.13508,3.79898 -2.13508,5.73273 l 0,1.07003 -4.61063,0 -4.61062,0 0.23226,-2.48739 c 0.47414,-5.07723 3.46593,-9.29709 8.1469,-11.49107 1.83429,-0.85973 2.78883,-1.03694 6.15711,-1.14305 3.3997,-0.10699 4.32102,-2.4e-4 6.26131,0.72613 3.16061,1.18318 6.34594,4.37056 7.1823,7.18692 1.15879,3.90205 0.60826,8.00872 -1.67887,12.52348 -1.03555,2.04418 -5.97191,9.31155 -7.803,11.48767 -0.50854,0.60437 -0.9246,1.25656 -0.9246,1.44936 0,0.19814 2.39302,0.3505 5.50485,0.3505 l 5.50483,0 0,3.60663 0,3.60661 -14.10567,0 c -13.40165,0 -14.07674,-0.0331 -13.52606,-0.66438 z m 74.32795,-15.85013 0,-16.51452 -2.84733,0 c -1.56603,0 -2.8395,-0.12822 -2.82998,-0.28474 0.009,-0.15669 0.31563,-1.73686 0.68017,-3.51169 l 0.66278,-3.22697 6.53307,-0.10388 6.5331,-0.10389 0,20.13009 0,20.13009 -4.3659,0 -4.36591,0 z m -180.71052,13.67442 c 0,-0.30924 0.43956,-0.67256 0.97679,-0.80739 0.54689,-0.13736 1.1317,-0.65259 1.32875,-1.17088 0.40101,-1.05471 0.41363,-19.17093 0.0138,-20.61778 -0.1837,-0.66566 -0.56923,-0.985 -1.29092,-1.06924 -0.69232,-0.0808 -1.02899,-0.3432 -1.02899,-0.80192 0,-0.53863 0.41857,-0.7327 1.99313,-0.92417 1.09622,-0.13322 2.63377,-0.35001 3.41679,-0.48158 1.34499,-0.22601 1.42366,-0.18404 1.42366,0.75955 0,1.22293 0.0155,1.22337 1.74453,0.0497 2.49307,-1.69184 6.05363,-1.0593 8.18141,1.45348 1.16548,1.37638 1.96364,4.67397 1.69157,6.98884 -0.6264,5.32962 -4.56053,8.78477 -9.53306,8.3724 l -2.11128,-0.17508 0.10837,3.44914 0.10837,3.44915 1.23385,0.54308 c 0.67861,0.29868 1.23384,0.76849 1.23384,1.04401 0,0.38812 -1.06883,0.50095 -4.74555,0.50095 -3.93803,0 -4.74554,-0.0956 -4.74554,-0.56223 z m 10.84772,-10.24481 c 1.92631,-0.80485 2.95362,-3.27506 2.93484,-7.05696 -0.0299,-6.01097 -2.51026,-8.35101 -5.96857,-5.63072 -0.97522,0.76711 -0.9804,0.80087 -0.9804,6.39088 l 0,5.61968 1.23384,0.60825 c 1.50219,0.74052 1.19126,0.73281 2.78029,0.0689 z m -85.21616,1.54542 c -1.84193,-1.02088 -2.44257,-3.47142 -1.36271,-5.55963 0.67204,-1.29959 2.71642,-2.44029 6.44613,-3.59671 l 2.65749,-0.82399 -0.009,-2.1171 c -0.0104,-2.55463 -0.82442,-3.69745 -2.63566,-3.69745 -1.6886,0 -2.42444,0.70818 -2.55694,2.46077 -0.0958,1.26745 -0.28619,1.57175 -1.17834,1.88363 -1.36374,0.47675 -2.31101,-0.0837 -2.47519,-1.46455 -0.15704,-1.32111 1.84977,-3.29713 4.00408,-3.94259 3.71392,-1.11271 7.22839,-0.2165 8.63371,2.20166 0.64901,1.11679 0.78934,2.11614 0.87959,6.26413 0.1453,6.67952 0.1759,6.78957 1.80976,6.52442 1.06841,-0.17338 1.30982,-0.0921 1.30982,0.44101 0,0.98284 -1.974,1.9562 -3.96718,1.9562 -1.36676,0 -1.97199,-0.20998 -2.69813,-0.93614 l -0.93614,-0.93614 -1.76067,0.93614 c -1.97487,1.05005 -4.67842,1.22835 -6.16149,0.40634 z m 6.82815,-2.39938 c 1.04667,-0.61829 1.10259,-0.78347 1.10259,-3.25713 l 0,-2.60583 -1.23384,0.26572 c -2.85375,0.61456 -4.08117,1.79309 -4.08117,3.91863 0,2.18827 2.00027,2.98535 4.21242,1.67861 z m 36.20395,2.21558 c -3.11578,-1.4153 -4.55961,-4.24467 -4.26444,-8.35665 0.39004,-5.43314 3.75383,-8.77302 8.83587,-8.77302 4.32448,0 6.56796,1.96785 5.75913,5.0515 -0.2574,0.98135 -0.40547,1.05611 -1.88033,0.94912 -1.49834,-0.10872 -1.63246,-0.21343 -2.09295,-1.63471 -0.27061,-0.83521 -0.81364,-1.84331 -1.20675,-2.24023 -0.63359,-0.6397 -0.84941,-0.66587 -1.90077,-0.23038 -2.43098,1.00695 -3.69446,5.85718 -2.49292,9.56966 1.48342,4.58334 4.64976,5.67847 7.83704,2.71056 0.83655,-0.779 1.05316,-0.83571 1.43489,-0.37573 0.58355,0.70312 -0.89942,2.54678 -2.75787,3.42868 -1.74959,0.83022 -5.33285,0.78154 -7.2709,-0.0987 z m 16.88537,-0.33041 c -2.95312,-1.4975 -4.27462,-3.52835 -4.46279,-6.85829 -0.18188,-3.21883 0.34257,-5.17607 1.88847,-7.04775 1.6565,-2.0056 3.71271,-2.87456 6.82647,-2.88487 3.61374,-0.0121 6.0773,1.32216 7.67682,4.15729 1.00293,1.77765 1.17215,2.4646 1.17215,4.75807 0,2.23786 -0.17205,2.97403 -1.04195,4.4584 -2.50485,4.2742 -7.54981,5.70378 -12.05917,3.41715 z m 6.90897,-1.47225 c 1.74563,-1.57267 1.88722,-7.80763 0.2521,-11.10169 -2.45925,-4.95431 -6.87171,-2.34265 -6.86657,4.06422 0.005,5.78185 3.67438,9.68625 6.61447,7.03747 z m 53.05358,1.45546 c -1.47973,-0.77301 -2.3412,-1.56363 -3.17542,-2.91419 -1.02574,-1.66061 -1.14479,-2.17215 -1.14479,-4.91858 0,-3.70905 0.97545,-5.80096 3.54576,-7.60407 1.54749,-1.08559 1.86053,-1.1558 5.15348,-1.1558 3.18226,0 3.65034,0.0956 5.07015,1.03552 3.09188,2.04685 4.58286,6.50199 3.48647,10.41787 -0.65401,2.33587 -3.3753,5.20272 -5.4869,5.78039 -2.70636,0.74038 -5.21807,0.52419 -7.44875,-0.64114 z m 6.84318,-1.35843 c 2.26941,-1.82148 1.97648,-10.41791 -0.43159,-12.66576 -1.43931,-1.34352 -2.66175,-1.43246 -4.01682,-0.29225 -1.37746,1.15907 -1.96434,2.92905 -1.96733,5.93333 -0.005,5.51358 3.50692,9.35935 6.41574,7.02468 z m 34.01423,1.8758 c -3.8612,-1.41432 -5.65294,-6.148 -4.18699,-11.0617 1.13974,-3.8202 4.32301,-6.23814 8.21268,-6.23814 4.05634,0 6.79416,2.38928 6.79416,5.92921 0,1.97307 -0.1815,2.03125 -6.35903,2.03813 l -4.65062,0.005 0,1.39871 c 0,1.91514 1.37611,4.59971 2.80422,5.47055 2.00678,1.22371 4.23003,0.89711 6.21734,-0.91331 0.6546,-0.59632 0.96469,-0.67727 1.30207,-0.33987 0.62737,0.62733 -0.1434,1.93986 -1.80955,3.08153 -1.68372,1.15371 -6.00189,1.48035 -8.32428,0.62969 z m 6.26414,-12.27999 c 0,-2.1033 -1.90491,-3.76862 -3.5816,-3.13114 -1.047,0.39808 -2.48897,2.43618 -2.4913,3.52123 -10e-4,0.57749 0.39578,0.66438 3.03574,0.66438 l 3.03716,0 z m -204.24846,11.94128 c 0,-0.27639 0.64065,-0.66078 1.42366,-0.85421 l 1.42367,-0.35169 0,-11.00968 0,-11.00967 -1.42367,-0.35169 c -0.78301,-0.19343 -1.42366,-0.57781 -1.42366,-0.85419 0,-0.40315 1.8262,-0.50251 9.23558,-0.50251 l 9.23561,0 0.47072,3.07501 c 0.25891,1.69128 0.4166,3.12717 0.35042,3.19089 -0.0661,0.0637 -0.43232,0.17481 -0.81367,0.24687 -0.5168,0.0977 -0.82704,-0.25571 -1.21829,-1.38758 -0.28872,-0.83522 -0.96856,-1.90296 -1.51077,-2.37277 -0.86406,-0.74868 -1.40526,-0.85421 -4.38145,-0.85421 l -3.39563,0 0,4.57307 0,4.57308 2.5626,-0.11234 2.5626,-0.11217 0.35169,-1.42366 c 0.26544,-1.07451 0.54476,-1.42361 1.13892,-1.4234 0.74675,2.4e-4 0.78725,0.20609 0.78725,4.0003 0,3.73806 -0.048,3.99289 -0.73374,3.89107 -0.43692,-0.0649 -0.84858,-0.54106 -1.01767,-1.17723 -0.47061,-1.77057 -0.95963,-2.07515 -3.38656,-2.10932 l -2.26509,-0.0319 0,5.0854 c 0,2.79697 0.10198,5.35099 0.22647,5.67559 0.1246,0.32461 0.80793,0.69927 1.51859,0.8326 0.73305,0.13753 1.29209,0.4705 1.29209,0.76961 0,0.42562 -1.06082,0.52721 -5.50484,0.52721 -4.31409,0 -5.50483,-0.10872 -5.50483,-0.50251 z m 19.81293,-0.15756 c 0.0699,-0.36301 0.46681,-0.72307 0.88202,-0.80014 1.615,-0.29975 1.70405,-0.65987 1.70405,-6.892 0,-6.23512 -0.0885,-6.59211 -1.70841,-6.89284 -0.4176,-0.0775 -0.75928,-0.38538 -0.75928,-0.68411 0,-0.375 0.82264,-0.68728 2.65751,-1.00882 4.13767,-0.72508 4.42309,-0.69591 4.14216,0.42343 -0.29514,1.17593 0.009,1.17438 1.93214,-0.0104 0.87176,-0.53692 2.0999,-0.93614 2.8834,-0.93726 2.38408,-0.003 3.45127,2.20539 1.84272,3.81392 -0.86625,0.86626 -1.82998,0.73858 -3.34303,-0.44293 -0.63581,-0.49648 -1.08436,-0.59724 -1.54981,-0.34814 -1.45356,0.77793 -1.5657,1.30825 -1.45746,6.89317 l 0.10561,5.44848 1.04401,0.49984 c 0.57422,0.27492 1.04403,0.74678 1.04403,1.0486 0,0.44947 -0.86356,0.54875 -4.77339,0.54875 -4.32972,0 -4.76158,-0.0614 -4.64627,-0.66002 z m 34.8558,0.0708 c 0,-0.32407 0.51252,-0.76787 1.13892,-0.98624 l 1.13895,-0.39704 0,-6.15106 c 0,-6.35696 -0.15928,-7.06221 -1.5945,-7.06221 -0.41344,0 -0.68337,-0.27926 -0.68337,-0.70701 0,-0.56903 0.38897,-0.75432 1.99313,-0.94937 1.09621,-0.13322 2.63378,-0.35002 3.41681,-0.48158 1.38567,-0.23287 1.42365,-0.20841 1.42365,0.91619 l 0,1.15544 1.99313,-1.09889 c 3.44137,-1.89734 7.33259,-1.32412 8.2161,1.21035 0.23239,0.66664 0.42341,3.68901 0.42662,6.75021 0.003,3.0487 0.13477,5.74595 0.29246,5.9939 0.15773,0.24794 0.75298,0.62811 1.32294,0.8448 0.56997,0.21671 1.03629,0.65449 1.03629,0.97286 0,0.48657 -0.72642,0.57886 -4.55572,0.57886 -3.72001,0 -4.55573,-0.10061 -4.55573,-0.54875 0,-0.3018 0.46981,-0.77368 1.04401,-1.04862 l 1.04403,-0.49987 0.10475,-5.5445 c 0.058,-3.06681 -0.0651,-5.99126 -0.27533,-6.54425 -0.48602,-1.27831 -1.97141,-1.33258 -4.38448,-0.16015 l -1.728,0.83954 0.10441,5.7047 0.1044,5.70469 1.04401,0.49991 c 0.57422,0.27494 1.04403,0.74684 1.04403,1.04864 0,0.44809 -0.83572,0.54874 -4.55573,0.54874 -3.8643,0 -4.55573,-0.0894 -4.55573,-0.58921 z m 76.75951,-0.0708 c 0.0699,-0.36301 0.46683,-0.71908 0.88204,-0.7913 1.57115,-0.27326 1.6573,-0.85619 1.69179,-11.44605 0.0188,-5.77153 -0.12683,-10.57727 -0.33728,-11.1308 -0.25402,-0.66811 -0.70347,-1.01241 -1.43084,-1.09612 -0.61109,-0.0702 -1.11007,-0.38388 -1.17752,-0.73995 -0.0951,-0.50178 0.46455,-0.70301 2.97627,-1.07026 1.70134,-0.24877 3.33282,-0.54419 3.62553,-0.65652 0.44325,-0.17015 0.53218,0.84574 0.53218,6.08024 l 0,6.28447 2.12659,-1.11865 c 1.5258,-0.80262 2.65901,-1.11866 4.01121,-1.11866 3.9889,0 4.56343,1.12394 4.79622,9.3829 l 0.17353,6.15593 1.27981,0.42237 c 0.7039,0.23231 1.27981,0.6654 1.27981,0.96241 0,0.43813 -0.89537,0.54001 -4.74554,0.54001 -3.88555,0 -4.74555,-0.0994 -4.74555,-0.54874 0,-0.30181 0.46981,-0.77367 1.04401,-1.04859 l 1.04403,-0.49986 0.10889,-5.50025 c 0.0599,-3.02515 0.0155,-5.87972 -0.0994,-6.34351 -0.44726,-1.80998 -2.64893,-1.81923 -5.22969,-0.0219 l -1.04401,0.72706 0,5.49835 0,5.49836 1.32875,0.5552 c 0.73082,0.30534 1.32875,0.80915 1.32875,1.11955 0,0.46948 -0.80263,0.56437 -4.77337,0.56437 -4.32972,0 -4.76159,-0.0613 -4.6463,-0.66001 z m 40.62191,0 c 0.0699,-0.36301 0.46683,-0.71908 0.88203,-0.7913 1.49424,-0.25989 1.70404,-1.09818 1.70404,-6.80854 0,-3.03579 -0.17438,-5.78306 -0.393,-6.19156 -0.22536,-0.42109 -0.79215,-0.73434 -1.32875,-0.73434 -0.6596,0 -0.93576,-0.20865 -0.93576,-0.707 0,-0.56904 0.38898,-0.75433 1.99315,-0.94938 1.09621,-0.13322 2.63376,-0.35002 3.41679,-0.48158 1.38854,-0.23335 1.42366,-0.21041 1.42366,0.92908 l 0,1.16833 2.12659,-1.11865 c 3.28703,-1.72907 6.62033,-1.46839 7.992,0.625 0.54315,0.82898 0.70564,2.19005 0.87405,7.32112 l 0.20685,6.30283 1.04403,0.49925 c 0.5742,0.27461 1.04402,0.74621 1.04402,1.04802 0,0.44808 -0.83573,0.54874 -4.55573,0.54874 -3.72001,0 -4.55573,-0.10061 -4.55573,-0.54874 0,-0.30181 0.46981,-0.77371 1.04403,-1.04864 l 1.04401,-0.49991 0.10475,-5.79136 c 0.0645,-3.56444 -0.05,-6.08086 -0.29808,-6.54423 -0.53822,-1.00565 -2.06517,-0.96871 -4.18712,0.10129 l -1.69394,0.85421 -0.10958,4.93536 c -0.0602,2.71446 -0.0223,5.27706 0.0844,5.69467 0.10664,0.41759 0.72219,1.05666 1.36797,1.42012 0.64578,0.36346 1.06757,0.83327 0.93731,1.04403 -0.13805,0.2234 -2.13862,0.38317 -4.79798,0.38317 -4.12812,0 -4.5491,-0.0626 -4.43405,-0.66002 z"
       style="fill:#6d6c6d"
       sodipodi:nodetypes="scsssscssscssscssscssscssssccssssscsssscccssssssssscccsccccscscccccccccsssssssssssscccsssccsssscsscssccssssssssssscsccsscsssssssssssssssssssssssssscssssssssssssscscsssccssscsccsscscscscccssscscsssscccccssscsscssssscccssssssccsssscsssccsscsssssscsscscsssscssscccsssscsssssssscssscssssscscscccsssccsscssssscssscssssscscscscscsc" />
    <path
       inkscape:connector-curvature="0"
       id="path3503"
       d="m -666.53511,712.14843 c -1.82707,-0.74059 -2.47454,-1.73047 -6.38553,-9.76248 -5.42281,-11.13684 -7.96187,-14.98606 -10.63949,-16.12949 -1.67879,-0.71689 -3.47926,-2.59363 -7.04767,-7.34621 -17.346,-23.10223 -25.93784,-48.42377 -27.00597,-79.5909 -1.14727,-33.47663 8.64398,-65.05519 29.85878,-96.3 9.26881,-13.65096 23.79034,-30.27138 26.47016,-30.29605 0.23619,-0.002 -1.39009,2.50821 -3.61398,5.57864 -4.51071,6.22772 -7.37762,11.41703 -10.53849,19.07534 -6.623,16.04651 -8.70216,32.18544 -7.56766,58.74207 1.32937,31.11805 3.75281,56.93007 8.19643,87.29999 1.81344,12.39396 2.14588,23.76453 0.86375,29.543 -0.45678,2.05865 -1.85418,5.83865 -3.10534,8.4 l -2.27484,4.657 2.24656,3.6 c 1.2356,1.98 3.6934,6.165 5.46178,9.3 1.76838,3.135 4.20032,7.185 5.4043,9 3.21943,4.85328 3.19915,4.80457 1.98345,4.76197 -0.59698,-0.0209 -1.63478,-0.26071 -2.30624,-0.53288 z"
       style="fill:#e41b1f" />
    <path
       inkscape:connector-curvature="0"
       id="path3501"
       d="m -306.74145,556.26935 c -5.16284,-14.76213 -16.47314,-30.80726 -29.27468,-41.52995 -16.99329,-14.23373 -51.83068,-34.91914 -95.29816,-56.58522 -10.56,-5.26356 -21.39309,-11.01892 -24.07354,-12.7897 -5.80622,-3.83573 -10.60758,-8.84204 -13.26542,-13.83163 l -1.93895,-3.64004 -6.46105,-0.39761 c -3.55357,-0.21868 -10.6004,-0.56721 -15.65962,-0.77451 l -9.19859,-0.3769 1.55801,-1.558 c 1.90719,-1.9072 4.22986,-1.98988 14.00979,-0.49875 9.52807,1.45273 14.94241,1.39171 16.2332,-0.18295 1.37262,-1.6745 6.8069,-2.45955 17.49617,-2.52753 10.52605,-0.0669 15.4668,0.38125 24.9,2.25877 34.14496,6.79598 64.43388,25.33115 86.7463,53.08402 8.9732,11.16114 19.53051,29.69628 25.63411,45.00503 5.7269,14.36388 12.32436,38.39497 10.54091,38.39497 -0.29263,0 -1.16945,-1.8225 -1.94848,-4.05 z"
       style="fill:#1d9b51" />
    <path
       inkscape:connector-curvature="0"
       id="path3499"
       d="m -567.51428,805.05492 c -7.98014,-0.74221 -20.60874,-3.37426 -28.93731,-6.03112 -24.96769,-7.96479 -44.32285,-19.92848 -62.58097,-38.68213 -11.30763,-11.61453 -19.97155,-23.34531 -28.42199,-38.48282 -6.45003,-11.55412 -14.75973,-30.95512 -14.75973,-34.46016 0,-1.63511 0.38748,-1.15119 2.77028,3.45982 3.82281,7.39762 11.63863,17.57284 18.67284,24.3097 12.93206,12.38542 26.23052,19.87065 62.2645,35.04646 17.17923,7.23507 37.81715,14.98701 59.04803,22.17938 24.53977,8.31333 30.80366,11.91206 37.84434,21.74239 0.87977,1.22833 1.14963,1.24599 12,0.78516 6.105,-0.2593 12.1125,-0.66592 13.35,-0.90363 2.68933,-0.51656 2.94443,0.26804 0.66909,2.05782 -1.47087,1.15698 -2.35897,1.24355 -12.75772,1.24355 -11.01528,0 -11.18537,0.0195 -11.76909,1.35 -0.8391,1.91259 -3.882,3.20318 -10.79228,4.57737 -11.73548,2.33372 -24.28407,2.95369 -36.59999,1.80821 z"
       style="fill:#801d6b" />
    <path
       inkscape:connector-curvature="0"
       id="path3497"
       d="m -663.63287,623.79711 c -0.12477,-0.20186 -2.87329,-8.21454 -6.10786,-17.80596 -6.28205,-18.62812 -6.45272,-19.00238 -8.66533,-19.00238 -0.82932,0 -1.02284,-0.14795 -1.02248,-0.78172 3.5e-4,-0.78171 5.8e-4,-0.78173 6.254,-0.78173 l 6.25355,0 -2e-4,0.78173 c -1.6e-4,0.65818 -0.18789,0.78172 -1.18779,0.78172 -1.67895,0 -2.28674,0.30945 -2.28674,1.16425 0,1.25884 9.15418,29.10796 9.41309,28.63681 0.72827,-1.32523 6.56885,-20.46677 6.56885,-21.52831 0,-1.924 -1.58047,-6.24319 -2.61351,-7.14235 -0.49318,-0.42927 -1.51401,-0.8792 -2.2685,-0.99985 -1.09775,-0.17554 -1.37173,-0.36666 -1.37146,-0.95668 3.3e-4,-0.72625 0.10203,-0.73732 6.77509,-0.73732 l 6.77477,0 -1.5e-4,0.78173 c -1.2e-4,0.66449 -0.18593,0.78172 -1.239,0.78172 -1.87818,0 -2.58291,0.52093 -2.58291,1.90924 0,1.03405 7.94723,26.57075 8.7045,27.97003 0.34964,0.64608 -0.25098,2.30813 5.01578,-13.87974 2.39044,-7.34722 4.34625,-13.69913 4.34625,-14.11537 0,-1.05432 -0.77987,-1.5925 -2.60594,-1.79832 -1.30571,-0.14718 -1.56326,-0.29756 -1.56326,-0.91274 0,-0.72244 0.11671,-0.73655 6.09287,-0.73655 5.85677,0 6.089,0.0265 5.99322,0.682 -0.0676,0.46306 -0.47632,0.7586 -1.27299,0.9206 -1.4546,0.29579 -2.81332,1.28331 -3.58133,2.60292 -0.32202,0.55329 -3.11031,8.35404 -6.1962,17.335 -3.08589,8.98096 -5.77966,16.53259 -5.98615,16.7814 -0.2065,0.24881 -0.8578,0.40531 -1.44734,0.34779 l -1.07189,-0.10461 -3.82177,-11.46703 c -2.10197,-6.30687 -3.95857,-11.67838 -4.12577,-11.93668 -0.25526,-0.39435 -0.35185,-0.39407 -0.60238,0.002 -0.1641,0.25926 -1.96351,5.47442 -3.99869,11.58925 -2.03517,6.11483 -3.85481,11.3133 -4.04366,11.55216 -0.4177,0.52835 -2.21418,0.57614 -2.52867,0.0673 z m 112.84548,-0.15902 c -6.08253,-1.32148 -11.65385,-6.72793 -13.42101,-13.02385 -1.34986,-4.80919 -0.90543,-10.41812 1.17007,-14.76696 2.34695,-4.91757 7.68022,-9.20771 12.76331,-10.26693 3.09836,-0.64564 8.03205,-0.24514 11.55653,0.93812 l 2.95319,0.99145 0.0968,4.58563 0.0968,4.58561 -2.87628,-1.34632 c -3.81464,-1.78556 -5.68097,-2.21548 -8.76,-2.01787 -5.19415,0.33333 -8.37188,3.59822 -9.20108,9.45345 -1.0625,7.50255 2.89817,12.9374 9.71579,13.33207 3.00647,0.17404 5.48474,-0.4062 8.72841,-2.04359 1.10329,-0.55695 2.08863,-1.01263 2.18962,-1.01263 0.10099,0 0.18362,2.01536 0.18362,4.47857 l 0,4.47857 -2.69261,0.71878 c -5.57688,1.48873 -8.78491,1.72373 -12.50319,0.9159 z m 28.91942,0.0599 c -0.95544,-0.24836 -2.21551,-0.70273 -2.80015,-1.00971 -1.81081,-0.95083 -4.03408,-3.45956 -5.15797,-5.82025 -0.98031,-2.05912 -1.07498,-2.56478 -1.07328,-5.73265 0.002,-3.03105 0.11955,-3.72591 0.92431,-5.44607 1.23218,-2.63376 3.41205,-4.92726 5.78803,-6.08972 2.51931,-1.23259 7.68657,-1.55909 10.36335,-0.65481 3.36397,1.13641 6.33898,4.08423 7.65324,7.58329 0.86243,2.29612 0.76047,7.23826 -0.20045,9.71514 -1.74428,4.4961 -6.03967,7.52147 -11.03228,7.77037 -1.57942,0.0787 -3.4589,-0.0541 -4.4648,-0.31559 z m 5.27574,-6.50567 c 3.32504,-1.25982 4.84891,-5.50537 3.19922,-8.91315 -2.59205,-5.35447 -9.87841,-3.75023 -10.31393,2.27083 -0.32795,4.53389 3.42702,8.03955 7.11471,6.64232 z m 82.87857,6.43314 c -1.00701,-0.2711 -2.30517,-0.73816 -2.8848,-1.03791 -1.70079,-0.8795 -3.79781,-3.21018 -4.78729,-5.32068 -0.82794,-1.76596 -0.91999,-2.36205 -0.91999,-5.95777 0,-3.67076 0.0789,-4.15616 0.97081,-5.97242 1.26382,-2.5736 4.1382,-5.20795 6.76074,-6.19617 2.72243,-1.02587 7.44944,-0.87496 9.9076,0.31629 3.92222,1.90075 6.74864,6.26448 7.10441,10.96853 l 0.19822,2.62093 -8.95313,0 -8.95312,0 0.22003,1.10015 c 0.25791,1.2896 1.65372,3.2312 2.74727,3.82153 1.10688,0.59752 3.90493,0.47161 5.02337,-0.22604 0.52565,-0.3279 1.28939,-0.99028 1.69719,-1.47195 l 0.74146,-0.87579 3.33824,1.11214 c 3.81509,1.27099 3.82108,1.2922 1.12618,3.98709 -3.1845,3.18451 -8.50314,4.43353 -13.33719,3.13207 z m 8.60587,-15.85472 c 0,-0.95812 -1.45219,-3.29739 -2.3914,-3.85219 -1.45506,-0.85953 -3.84417,-0.77554 -5.28762,0.18589 -1.23458,0.82231 -2.60473,3.1124 -2.2274,3.72292 0.32774,0.53031 9.90642,0.47556 9.90642,-0.0566 z m 83.21028,16.17509 c -0.38217,-0.10003 -1.25131,-0.32435 -1.93145,-0.49848 -1.88462,-0.48252 -4.33284,-2.26839 -5.74272,-4.18905 -2.52869,-3.44477 -3.22297,-8.21054 -1.84567,-12.6697 0.61606,-1.99453 1.06165,-2.69358 2.86632,-4.49678 2.9774,-2.97492 5.05714,-3.73604 9.78042,-3.57932 4.10493,0.1362 5.88403,0.84266 8.36161,3.32026 2.01317,2.01316 3.19705,4.36574 3.58246,7.119 1.14305,8.16539 -3.91137,14.69617 -11.64847,15.0509 -1.50018,0.0688 -3.04032,0.0432 -3.4225,-0.0568 z m 4.23344,-6.75351 c 2.1337,-0.80843 3.90863,-3.4783 3.9236,-5.90187 0.0108,-1.74086 -1.53968,-4.67142 -2.9242,-5.52709 -2.43961,-1.50777 -5.58913,-0.62574 -7.42608,2.07967 -0.70147,1.03308 -0.80191,1.53985 -0.69455,3.50407 0.15165,2.77412 1.15417,4.48548 3.23523,5.52263 1.57092,0.78292 2.47334,0.85783 3.886,0.32259 z m -286.79783,5.78108 c 0.073,-0.4999 0.48669,-0.76914 1.49083,-0.9704 2.58407,-0.5179 2.60641,-0.60787 2.60063,-10.47182 -0.006,-9.92774 -0.0899,-10.33384 -2.21049,-10.67853 -1.17172,-0.19046 -1.93175,-0.73478 -1.94827,-1.39531 -0.003,-0.11701 0.81549,-0.30943 1.8187,-0.42761 1.00322,-0.11818 2.91844,-0.50254 4.25606,-0.85413 l 2.43204,-0.63927 -0.11204,11.39363 -0.11204,11.39363 0.87797,0.87797 c 0.60883,0.60883 1.25558,0.87797 2.10978,0.87797 1.04588,0 1.23177,0.118 1.23158,0.78172 -2.4e-4,0.78137 -0.003,0.78173 -6.26805,0.79287 -6.06408,0.0108 -6.26452,-0.0113 -6.1667,-0.68072 z m 15.28563,0.0245 c 0.0742,-0.49854 0.53294,-0.79305 1.65806,-1.06439 1.08645,-0.26203 1.68993,-0.63706 2.00128,-1.24373 0.63308,-1.23357 0.47394,-33.16205 -0.1709,-34.28914 -0.32066,-0.56045 -0.82576,-0.79004 -1.91089,-0.86858 -1.1853,-0.0858 -1.49524,-0.24826 -1.578,-0.82717 -0.0938,-0.65598 0.24803,-0.78854 3.82176,-1.48224 2.15862,-0.419 4.0811,-0.75935 4.27219,-0.75634 0.2273,0.003 0.31336,4.69069 0.24889,13.55554 -0.0542,7.45254 0.024,13.54948 0.17372,13.54877 1.01182,-0.005 5.36086,-3.72099 7.45468,-6.36988 1.66174,-2.10226 1.70999,-2.89163 0.20053,-3.2807 -0.78073,-0.20124 -1.16341,-0.52592 -1.24018,-1.05224 -0.1102,-0.75559 -0.071,-0.7612 5.32253,-0.7612 5.40699,0 5.433,0.003 5.32252,0.76758 -0.0831,0.57449 -0.43912,0.83539 -1.41532,1.03717 -2.58021,0.53331 -4.58401,1.89018 -7.31932,4.95628 -1.46738,1.64485 -2.66933,3.18076 -2.67099,3.41315 -0.002,0.2324 1.75299,3.03545 3.89924,6.229 3.35293,4.98905 4.13031,5.93057 5.52212,6.68809 0.89092,0.48489 1.95047,0.88163 2.35456,0.88163 0.53029,0 0.7347,0.21749 0.7347,0.78172 0,0.77059 -0.0643,0.78173 -4.51663,0.78173 -4.47558,0 -4.51663,-0.007 -4.51663,-0.79557 0,-1.13007 -1.00106,-2.95281 -3.79958,-6.91825 -2.77708,-3.93509 -3.29406,-4.47204 -4.62568,-4.80437 l -0.95544,-0.23846 0.005,4.81488 c 0.003,2.64818 0.15145,5.04596 0.33006,5.32842 0.17861,0.28245 0.84068,0.68646 1.47127,0.8978 0.68793,0.23055 1.18621,0.65051 1.24572,1.0499 0.0942,0.63239 -0.18864,0.66675 -5.66147,0.68775 -5.55408,0.0213 -5.75698,-0.003 -5.65812,-0.66716 z m 29.53327,-0.0245 c 0.073,-0.4999 0.48669,-0.76914 1.49083,-0.9704 2.58407,-0.5179 2.60642,-0.60787 2.60063,-10.47182 -0.006,-9.92774 -0.0899,-10.33384 -2.21049,-10.67853 -1.17172,-0.19046 -1.93175,-0.73478 -1.94827,-1.39531 -0.003,-0.11701 0.81549,-0.30943 1.8187,-0.42761 1.00322,-0.11818 2.91844,-0.50252 4.25606,-0.8541 l 2.43204,-0.63922 -0.11553,11.3901 -0.11552,11.39011 0.88146,0.88146 c 0.61216,0.61216 1.25778,0.88145 2.11326,0.88145 1.04588,0 1.23177,0.118 1.23158,0.78172 -2.4e-4,0.78137 -0.003,0.78173 -6.26805,0.79287 -6.06408,0.0108 -6.26452,-0.0113 -6.1667,-0.68072 z m 80.18448,-11.83802 0,-12.33388 3.64805,0 3.64805,0 0,1.38973 c 0,0.76435 0.0768,1.38973 0.17071,1.38973 0.0939,0 0.86873,-0.53281 1.72186,-1.18402 2.01043,-1.5346 3.6974,-2.09265 6.27211,-2.07485 3.2625,0.0225 5.59381,1.69849 7.19145,5.16976 0.7589,1.6489 0.80523,2.20052 0.91195,10.85728 l 0.11244,9.12013 -3.67363,0 -3.67363,0 -0.002,-7.03553 c -10e-4,-4.00008 -0.16513,-7.6233 -0.38018,-8.39787 -0.56798,-2.04626 -2.02096,-3.328 -3.77243,-3.328 -1.8066,0 -2.97675,0.76399 -3.9393,2.57197 -0.69703,1.30925 -0.76754,2.01613 -0.87842,8.80647 l -0.12056,7.38296 -3.6182,0 -3.61819,0 0,-12.33388 z m 35.25706,6.52675 c -1.49211,-3.20754 -4.08328,-8.76335 -5.75817,-12.34626 l -3.04525,-6.51437 3.89747,0 3.89748,0 3.28741,7.11842 c 1.80808,3.91513 3.38335,7.12021 3.50061,7.12238 0.11725,0.002 1.65443,-3.08385 3.41595,-6.85784 1.76153,-3.774 3.32058,-6.98462 3.46457,-7.13472 0.14399,-0.1501 1.91087,-0.22828 3.9264,-0.17372 l 3.66459,0.0992 -5.65715,12.16017 -5.65716,12.16016 -3.11192,0.0992 -3.11191,0.0992 -2.71292,-5.83188 z m 52.29614,-6.52675 0,-12.33388 3.64805,0 3.64805,0 0,1.43097 0,1.43096 1.12915,-0.85832 c 5.31563,-4.04065 11.00506,-3.23701 13.73557,1.94016 l 0.94349,1.78888 0.10729,9.46755 0.10729,9.46756 -3.66848,0 -3.66848,0 0,-7.66078 c 0,-6.0841 -0.10583,-7.86545 -0.5142,-8.65516 -1.79502,-3.47116 -5.83542,-3.21279 -7.5128,0.48042 -0.55933,1.23156 -0.64459,2.36066 -0.65119,8.62628 l -0.008,7.20924 -3.64805,0 -3.64805,0 0,-12.33388 z m 30.84058,3.38747 -0.0927,-8.9464 -1.30288,-0.10784 -1.30287,-0.10783 0,-3.27964 0,-3.27964 1.38973,0 1.38973,0 0,-4.34292 0,-4.34292 3.64805,0 3.64805,0 0,4.34292 0,4.34292 1.73717,0 1.73717,0 0,3.30061 0,3.30062 -1.73717,0 -1.73717,0 0,9.03326 0,9.03327 -3.64218,0 -3.64217,0 -0.0927,-8.94641 z m 15.71548,-3.38747 0,-12.33388 3.64805,0 3.64805,0 0,12.33388 0,12.33388 -3.64805,0 -3.64805,0 0,-12.33388 z m 44.8189,0 0,-12.33388 3.62808,0 3.62807,0 0.10683,1.36928 0.10684,1.36929 1.99545,-1.34418 c 3.08152,-2.07581 6.68406,-2.54235 9.29613,-1.20389 1.12447,0.5762 2.90816,2.47893 3.56689,3.80498 1.02066,2.05451 1.29718,4.76151 1.29718,12.69842 l 0,7.97386 -3.64805,0 -3.64805,0 0,-6.58413 c 0,-7.66699 -0.3219,-9.66624 -1.79324,-11.13759 -0.8246,-0.8246 -1.34158,-1.03968 -2.49909,-1.03968 -1.80099,0 -2.78364,0.65901 -3.79015,2.54185 -0.72211,1.35083 -0.78496,1.97578 -0.88863,8.83659 l -0.1116,7.38296 -3.62331,0 -3.62335,0 0,-12.33388 z m -44.33708,-18.33904 c -2.29632,-2.10441 -1.82565,-5.7798 0.92935,-7.25732 1.42715,-0.7654 2.38993,-0.79798 3.97759,-0.13462 3.18402,1.33037 3.46742,6.38951 0.45167,8.063 -0.44145,0.24497 -1.54758,0.45095 -2.45806,0.45771 -1.39592,0.0104 -1.8506,-0.16656 -2.90055,-1.12877 z m -255.68739,-1.10143 c -1.14549,-1.1455 -1.12874,-2.72461 0.0414,-3.89467 0.74492,-0.74493 1.10723,-0.85999 2.17145,-0.68964 1.51777,0.24295 2.49337,1.30407 2.49337,2.71191 0,1.37247 -1.37966,2.72519 -2.77947,2.72519 -0.67693,0 -1.38912,-0.31523 -1.92668,-0.85279 z m 44.8189,0 c -1.1455,-1.1455 -1.12874,-2.72461 0.0413,-3.89467 0.74492,-0.74493 1.10723,-0.85999 2.17146,-0.68964 1.51776,0.24295 2.49336,1.30407 2.49336,2.71191 0,1.37247 -1.37965,2.72519 -2.77946,2.72519 -0.67693,0 -1.38912,-0.31523 -1.92668,-0.85279 z"
       style="fill:#212222" />
  </g>
</svg>
